<svg width="1440" height="391" viewBox="0 0 1440 391" fill="none" xmlns="http://www.w3.org/2000/svg">
<path d="M262 83.9999C294.667 57.9999 411.41 47.6963 499.5 83.9999C618 132.836 785 90 785 90C785 90 836 83.9999 910 51M910 51C939 29.5185 931 0.999939 910 1C889 1.00006 885 32.7308 910 51ZM910 51C944.667 76.3333 1216 129 1452 65" stroke="#0D5ADC" stroke-width="2" stroke-dasharray="8 4"/>
<path d="M-78 360C-45.3333 334 146 293 218 306C218 306 310 314.424 350 343.654M350 343.654C379 364.846 371 390 350 390C329 390 319 361.654 350 343.654ZM350 343.654C381 302.654 1000 350.654 1236 286.654" stroke="#0D5ADC" stroke-width="2" stroke-dasharray="8 4"/>
<g clip-path="url(#clip0)">
<path d="M669.004 107.057C668.972 106.795 668.791 106.577 668.541 106.495L637.207 96.1993C636.952 96.115 636.671 96.1892 636.49 96.3884C636.309 96.5875 636.262 96.8741 636.37 97.1201L639.983 105.378C639.983 105.378 643.902 114.363 643.922 114.38C643.746 114.391 644.061 114.502 643.922 114.38L646.741 120.824C646.77 120.892 646.811 120.954 646.859 121.007C646.941 121.098 647.048 121.167 647.167 121.203C647.358 121.261 647.565 121.233 647.733 121.125L668.696 107.717C668.918 107.575 669.038 107.319 669.004 107.057Z" fill="#0D5ADC"/>
<path d="M638.23 97.9707L665.658 106.738L642.687 107.876L638.23 97.9707Z" fill="white"/>
<path d="M647.67 119.546L643.285 109.849L665.576 108.093L647.67 119.546Z" fill="white"/>
</g>
<g clip-path="url(#clip1)">
<path d="M1262.07 285.256C1262.04 284.994 1261.86 284.775 1261.61 284.691L1230.34 274.206C1230.09 274.12 1229.8 274.193 1229.62 274.391C1229.44 274.589 1229.39 274.875 1229.5 275.122L1233.06 283.402L1228.53 291.858C1228.39 292.113 1228.43 292.422 1228.62 292.633C1228.64 292.653 1228.66 292.672 1228.68 292.689C1228.81 292.812 1228.99 292.862 1229.17 292.853L1229.17 292.861L1236.94 292.427L1239.72 298.888C1239.75 298.956 1239.79 299.018 1239.84 299.072C1239.92 299.164 1240.03 299.233 1240.15 299.27C1240.34 299.329 1240.55 299.302 1240.71 299.195L1261.76 285.914C1261.98 285.774 1262.1 285.518 1262.07 285.256Z" fill="#0D5ADC"/>
<path d="M1231.35 275.984L1256.13 284.291L1234.28 282.783L1231.35 275.984Z" fill="white"/>
<path d="M1234.21 284.145L1252.81 285.429L1235.57 286.984C1235.46 286.996 1235.34 287.036 1235.25 287.104L1231.07 290.004L1234.21 284.145Z" fill="#F4F9FC"/>
<path d="M1234.21 284.145L1252.81 285.429L1235.57 286.984C1235.46 286.996 1235.34 287.036 1235.25 287.104L1231.07 290.004L1234.21 284.145Z" fill="white"/>
<path d="M1231.5 291.365L1235.34 288.699L1236.37 291.093L1231.5 291.365Z" fill="#F4F9FC"/>
<path opacity="0.1" d="M1231.5 291.365L1235.34 288.699L1236.37 291.093L1231.5 291.365Z" fill="#0D5ADC"/>
<path d="M1240.66 297.616L1236.63 288.258L1258.64 286.271L1240.66 297.616Z" fill="white"/>
</g>
<defs>
<clipPath id="clip0">
<rect width="30" height="30" fill="white" transform="translate(649.192 84.9204) rotate(47.9345)"/>
</clipPath>
<clipPath id="clip1">
<rect width="30" height="30" fill="white" transform="translate(1242.39 263) rotate(48.2815)"/>
</clipPath>
</defs>
</svg>
