<svg width="40" height="40" viewBox="0 0 40 40" fill="none" xmlns="http://www.w3.org/2000/svg">
<path d="M36.6667 0H3.33333C1.4933 0.00220408 0.00220408 1.4933 0 3.33333V36.6667C0.00220408 38.5067 1.4933 39.9978 3.33333 40H36.6667C38.5067 39.9978 39.9978 38.5067 40 36.6667V3.33333C39.9978 1.4933 38.5067 0.00220408 36.6667 0ZM3.33333 1.33333H36.6667C37.7712 1.33333 38.6667 2.22876 38.6667 3.33333V5.33333H1.33333V3.33333C1.33333 2.22876 2.22876 1.33333 3.33333 1.33333ZM36.6667 38.6667H3.33333C2.22876 38.6667 1.33333 37.7712 1.33333 36.6667V6.66667H38.6667V36.6667C38.6667 37.7712 37.7712 38.6667 36.6667 38.6667Z" fill="#5586D9"/>
<path d="M3.99998 4.00002C4.36817 4.00002 4.66665 3.70154 4.66665 3.33335C4.66665 2.96516 4.36817 2.66669 3.99998 2.66669C3.63179 2.66669 3.33331 2.96516 3.33331 3.33335C3.33331 3.70154 3.63179 4.00002 3.99998 4.00002Z" fill="#5586D9"/>
<path d="M6.66667 4.00002C7.03486 4.00002 7.33333 3.70154 7.33333 3.33335C7.33333 2.96516 7.03486 2.66669 6.66667 2.66669C6.29848 2.66669 6 2.96516 6 3.33335C6 3.70154 6.29848 4.00002 6.66667 4.00002Z" fill="#5586D9"/>
<path d="M9.33332 4.00002C9.70151 4.00002 9.99999 3.70154 9.99999 3.33335C9.99999 2.96516 9.70151 2.66669 9.33332 2.66669C8.96513 2.66669 8.66666 2.96516 8.66666 3.33335C8.66666 3.70154 8.96513 4.00002 9.33332 4.00002Z" fill="#5586D9"/>
<path d="M34.6667 4.00002H35.3333C35.7015 4.00002 36 3.70154 36 3.33335C36 2.96516 35.7015 2.66669 35.3333 2.66669H34.6667C34.2985 2.66669 34 2.96516 34 3.33335C34 3.70154 34.2985 4.00002 34.6667 4.00002Z" fill="#5586D9"/>
<path d="M28 4.00002H32C32.3682 4.00002 32.6667 3.70154 32.6667 3.33335C32.6667 2.96516 32.3682 2.66669 32 2.66669H28C27.6318 2.66669 27.3333 2.96516 27.3333 3.33335C27.3333 3.70154 27.6318 4.00002 28 4.00002Z" fill="#5586D9"/>
<path d="M30 26H12.6667C9.78727 25.9985 7.42654 28.2828 7.33332 31.1607C7.29385 32.5765 7.83479 33.9469 8.83065 34.954C9.88826 36.0439 11.3406 36.6613 12.8593 36.6667H30C30.7364 36.6667 31.3333 36.0697 31.3333 35.3333V34C31.3333 33.2636 30.7364 32.6667 30 32.6667V30C30.7364 30 31.3333 29.403 31.3333 28.6667V27.3333C31.3333 26.597 30.7364 26 30 26ZM28.6666 32.6667H12.7767C12.0391 32.6881 11.4098 32.1372 11.3333 31.4033C11.3141 31.0377 11.446 30.6803 11.6982 30.4149C11.9504 30.1495 12.3006 29.9995 12.6667 30H28.6666V32.6667ZM30 28.6667H12.6667C11.9355 28.6666 11.2365 28.9667 10.733 29.4968C10.2294 30.0269 9.96566 30.7405 10.0033 31.4707C10.106 32.9181 11.3259 34.0306 12.7767 34H30V35.3333H12.8593C11.7029 35.3276 10.5975 34.8564 9.79265 34.026C9.04696 33.2774 8.6401 32.2563 8.66665 31.2C8.73859 29.0431 10.5086 27.3321 12.6667 27.3333H30V28.6667Z" fill="#5586D9"/>
<path d="M33.774 13.4247L20.458 8.74998C20.1691 8.63843 19.8495 8.63653 19.5593 8.74465L6.23132 13.422C5.70075 13.6038 5.34066 14.0981 5.33037 14.6589C5.32007 15.2196 5.66178 15.7269 6.18531 15.928L12.6666 18.446V22C12.6666 23.832 16.4666 24.6667 20 24.6667C23.5333 24.6667 27.3333 23.832 27.3333 22V18.446L28.6667 17.9273V18.6667C28.6667 19.403 29.2636 20 30 20H31.3333C32.0697 20 32.6667 19.403 32.6667 18.6667V17.3333C32.6648 17.0292 32.5927 16.7296 32.456 16.458L33.8093 15.93C34.3331 15.7308 34.6764 15.2253 34.6685 14.665C34.6606 14.1046 34.3032 13.609 33.774 13.4247ZM14 16.6767C14.1006 16.3067 16.1 15.3333 20 15.3333C23.9 15.3333 25.8993 16.3067 26 16.6667V20.3813C24.5813 19.67 22.238 19.3333 20 19.3333C17.762 19.3333 15.4186 19.6667 14 20.382V16.6767ZM20 23.3333C16.1 23.3333 14.1006 22.36 14 22.01C14.1006 21.64 16.1 20.6667 20 20.6667C23.8666 20.6667 25.8666 21.6227 26 22C25.8666 22.3773 23.8666 23.3333 20 23.3333ZM28.9067 16.4033L27.3333 17.0153V16.6667C27.3333 14.8347 23.5333 14 20 14C16.4666 14 12.6666 14.8347 12.6666 16.6667V17.0153L6.66665 14.682L20 9.99998L30 13.5133V15.454C29.5298 15.6228 29.1397 15.9614 28.9067 16.4033ZM31.3333 18.6667H30V17.3333C30 16.9651 30.2985 16.6667 30.6667 16.6667C31.0348 16.6667 31.3333 16.9651 31.3333 17.3333V18.6667ZM31.3453 15.46L31.3333 15.456V13.984L33.3333 14.6853L31.3453 15.46Z" fill="#5586D9"/>
</svg>
