<svg width="470" height="370" fill="none" xmlns="http://www.w3.org/2000/svg" class="image-md main-slider__image"><path d="M202.369 117.247c.446.446-136.743 5.439-138.962-47.8-2.068-49.669 68.859-59.853 101.246-39.882 32.387 19.972 11.089 82.503-27.064 45.251-38.152-37.251 96.253-86.108 147.117-68.923 59.796 20.204 45.224 86.108-44.637 68.923-40.673-7.78-27.005-35.283-17.493-47.668 28.885-37.602 175.051-36.973 184.811 17.136 9.76 54.11-62.641 102.101-62.641 102.101" stroke="#33211F" stroke-linecap="round" stroke-linejoin="round" stroke-dasharray="4.99 7.98"></path><path fill-rule="evenodd" clip-rule="evenodd" d="M340.973 151.601l15.183-29.618 4.495 10.301 2.6 2.444 11.34 3.74-33.618 13.133z" fill="#64B2FF"></path><path fill-rule="evenodd" clip-rule="evenodd" d="M363.251 134.728l-22.278 16.873 19.678-19.317 2.6 2.444z" fill="#4A5BAF"></path><path fill-rule="evenodd" clip-rule="evenodd" d="M80.864 76.54v40.634l39.904 6.991V83.531L80.864 76.54z" fill="#fff"></path><path clip-rule="evenodd" d="M77.415 83.931l39.903 6.992v40.633l-39.903-6.991V83.931z" stroke="#fff" stroke-miterlimit="10"></path><path d="M100.081 111.741a6.9 6.9 0 01-4.278-2.582c-2.383-2.952-2.444-7.184-.168-9.433a4.846 4.846 0 014.199-1.317 6.898 6.898 0 014.278 2.585c2.38 2.946 2.444 7.178.168 9.43a4.859 4.859 0 01-4.202 1.317h.003zm-.28-15.75a6.622 6.622 0 00-5.727 1.795c-2.772 2.728-2.998 7.584-.733 11.452-2.445 1.87-7.45 5.888-7.878 8.079-.162.816.834 2.124 1.629 2.243.06.008.122.008.183 0 2.023-.217 6.212-5.228 8.18-7.712a8.99 8.99 0 004.672 2.304 6.618 6.618 0 005.72-1.791c3.117-3.056 3.016-8.834-.229-12.852-1.622-2.008-3.728-3.208-5.806-3.52" fill="#64B2FF"></path><path fill-rule="evenodd" clip-rule="evenodd" d="M154.27 49.458V90.09l39.904 6.992V56.449l-39.904-6.991z" fill="#fff"></path><path clip-rule="evenodd" d="M154.27 49.458l39.904 6.99v40.635L154.27 90.09V49.458z" stroke="#fff" stroke-miterlimit="10"></path><path d="M172.912 58.484c-4.513-.917-8.106 2.796-8.008 8.296 0 .84.638 1.711 1.326 1.855.687.143 1.289-.48 1.274-1.32-.067-3.823 2.328-6.304 5.463-5.66 3.056.612 5.562 4.117 5.626 7.945.067 3.728-2.332 6.213-5.39 5.583-.841-.174-1.36.556-1.268 1.503l.088 5.036c0 .84.563 1.696 1.326 1.852.688.14 1.287-.477 1.272-1.317l-.141-3.746c3.972.07 6.799-3.53 6.722-8.376-.097-5.5-3.847-10.734-8.283-11.645M173.389 85.908c-.84-.17-1.439.544-1.421 1.568.015.932.642 1.897 1.485 2.072.844.174 1.439-.541 1.421-1.476-.018-1.027-.645-1.99-1.485-2.164z" fill="#4A5BAF"></path><path fill-rule="evenodd" clip-rule="evenodd" d="M243.409 42.555v40.634l39.904 6.991V49.546l-39.904-6.991z" fill="#EFF0FF"></path><path fill-rule="evenodd" clip-rule="evenodd" d="M243.409 42.555l39.904 6.991V90.18l-39.904-6.991V42.555z" fill="#fff"></path><path d="M262.55 81.111a2.322 2.322 0 01-.407-.113c-1.078-.407-1.94-1.559-2.139-2.86l-.183-1.253 5.311.987-.141 1.195c-.174 1.43-1.222 2.273-2.444 2.044h.003zm-.266-14.633a.733.733 0 01-.532-.71c0-.335.223-.568.507-.513a.73.73 0 01.532.706c0 .34-.223.572-.507.517zm-2.063 8.2l-.027-1.643a1.495 1.495 0 00-.13-.666 1.496 1.496 0 00-.408-.541c-3.056-2.35-4.357-6.921-2.909-10.209.99-2.246 3.056-3.398 5.384-2.98 3.38.685 6.139 4.468 6.163 8.45.022 2.667-1.222 4.861-3.202 5.714a.967.967 0 00-.498 1.011l.03 1.644-1.222-.226-.116-6.506c1.222-.4 1.781-2.001 1.222-3.578-.418-1.173-1.341-2.004-2.295-2.181a1.939 1.939 0 00-.962.058c-1.222.403-1.788 2.004-1.222 3.578.246.71.707 1.327 1.32 1.763l.116 6.539-1.222-.226h-.022zm1.913-18.434a6.262 6.262 0 00-4.052.553c-2.444 1.26-3.914 4.135-3.832 7.542a12.342 12.342 0 004.031 8.86l.021 1.183a.961.961 0 00-.562 1.116l.336 2.579c.379 2.683 2.319 4.92 4.498 5.326.218.041.439.062.66.064 1.94.018 3.435-1.5 3.667-3.746l.247-2.47a1.476 1.476 0 00-.611-1.332l-.021-1.185c3.792-1.947 4.974-7.544 2.64-12.5-1.552-3.3-4.278-5.5-7.028-5.999M261.966 49.418c-.538-.098-.963.336-.95.968l.055 3.215a1.377 1.377 0 00.993 1.326c.538.101.962-.333.95-.965l-.055-3.215a1.38 1.38 0 00-.993-1.33zM274.824 66.642l-2.719-.507c-.535-.1-.96.333-.948.969a1.368 1.368 0 00.987 1.326l2.723.507c.538.101.962-.333.95-.968a1.368 1.368 0 00-.993-1.326zM252.356 62.456l-2.72-.507c-.537-.098-.962.333-.953.969a1.377 1.377 0 00.993 1.326l2.72.507c.537.1.962-.333.953-.966a1.375 1.375 0 00-.993-1.329zM270.946 55.453a.744.744 0 00-.672.198l-1.87 1.904c-.421.306-.498 1.005-.165 1.57a1.2 1.2 0 00.785.612.75.75 0 00.767-.315l1.87-1.904c.364-.375.352-1.087-.027-1.607a1.156 1.156 0 00-.688-.452M253.037 51.99a.734.734 0 00-.577.12c-.422.305-.495 1.005-.165 1.57.055.097.122.186.198.266l1.953 2.616a1.198 1.198 0 00.785.611.743.743 0 00.575-.122c.425-.306.501-1.003.168-1.57a1.555 1.555 0 00-.199-.267l-1.949-2.612a1.22 1.22 0 00-.789-.611z" fill="#F79826"></path><path fill-rule="evenodd" clip-rule="evenodd" d="M380.106 50.503v40.633l39.904 6.992V57.494l-39.904-6.991z" fill="#EFF0FF"></path><path fill-rule="evenodd" clip-rule="evenodd" d="M380.106 50.503l39.904 6.99v40.635l-39.904-6.992V50.503z" fill="#fff"></path><path d="M413.712 87.259c-.306-.043-.739-.724-.755-1.7-.015-.974.398-1.527.7-1.496.303.03.736.724.755 1.702.018.977-.401 1.527-.7 1.494zm-14.667-8.43a.672.672 0 00.26-.016l9.854-2.87.116 6.558c-.449.813-5.103 3.42-10.114 2.72-5.011-.7-9.778-4.627-10.267-5.57l-.116-6.561 10.004 5.65a.79.79 0 00.263.088zm-.028-1.654l-14.853-8.394 14.637-4.278 14.859 8.4h-.101l-14.587-3.636-.077-.015a.629.629 0 00-.712.611.949.949 0 00.669.972l11.841 2.945-11.651 3.395h-.025zm-.232-14.319a.637.637 0 00-.263.019l-16.613 4.846a.722.722 0 00-.391.98c.076.213.224.391.418.505l5.397 3.056.131 7.275c.034 1.92 6.389 6.54 11.749 7.288 5.36.748 11.581-2.109 11.547-4.027l-.131-7.276 2.166-.636.138 7.667c-.963.477-1.51 1.568-1.403 2.808.031 1.79 1.018 3.33 2.243 3.502 1.225.171 2.157-1.1 2.139-2.89a3.949 3.949 0 00-1.509-3.209l-.147-8.296 1.69-.498a.724.724 0 00.391-.981.97.97 0 00-.416-.504l-16.873-9.534a.752.752 0 00-.26-.092" fill="#489BFD"></path><path d="M70.879 223.311l-3.047 3.746-6.57-4.232-5.127 4.929-5.436-2.362-1.198 2.75 7.27 3.163 4.861-4.672 6.836 4.403 4.58-5.641-2.17-2.084zM442.172 104.862l-1.601 4.556-7.615-1.766-3.159 6.374-5.916-.391-.198 2.995 7.911.522 2.997-6.041 7.92 1.84 2.408-6.857-2.747-1.232z" fill="#FF7133"></path><path d="M75.75 322.448l-4.902-.547-2.612 4.3-5.455-1-1.369 5.436-6.218-.858-1.88 4.849-6.114.153-.058-2.316 4.572-.113 1.986-5.119 5.974.825 1.393-5.524 6.017 1.1 2.55-4.196 4.545.505 1.1-3.105 2.181.77-1.71 4.84zM52.643 94.241l-1.137-4.8-4.929-1.012-.895-5.47-5.58.541-1.283-6.141-5.2-.138-2.204-5.708 2.16-.831 1.647 4.266 5.485.143 1.238 5.904 5.674-.547.987 6.035 4.81.99 1.057 4.446 3.294-.01.009 2.314-5.133.018z" fill="#E4C4FF"></path><path d="M333.113 325.153l.572 4.901 4.773 1.58.25 5.539 5.604.117.56 6.248 5.148.743 1.522 5.925-2.243.577-1.137-4.43-5.432-.786-.538-6.007-5.699-.119-.275-6.108-4.663-1.547-.529-4.54-3.272-.373.263-2.301 5.096.581zM336.035 69.255l4.763-1.28.868-4.956 5.439-1.058-.703-5.561 6.1-1.467-.016-5.2 5.638-2.371.898 2.135-4.217 1.773.019 5.487-5.864 1.41.715 5.655-6.004 1.167-.847 4.837-4.412 1.186.107 3.294-2.313.076-.171-5.127zM4.748 145.744l2.86 4.018 4.948-.92 2.887 4.73 4.969-2.6 3.501 5.204 4.871-1.831 4.19 4.456-1.687 1.585-3.135-3.33-5.137 1.931-3.367-5.002-5.048 2.646-3.19-5.222-4.828.898-2.652-3.725-3.05 1.253-.88-2.142 4.748-1.949z" fill="#64B2FF"></path><path d="M20.5 190.515l2.65-2.765 4.922 3.773 4.373-3.566 4.146 2.222 1.125-2.096-5.543-2.973-4.147 3.379-5.118-3.926-3.99 4.161 1.582 1.791z" fill="#FAB234"></path><path d="M195.836 347.838l2.029 2.184-3.154 3.652 2.573 3.56-1.913 3.116 1.58.969 2.558-4.171-2.439-3.373 3.279-3.798-3.053-3.285-1.46 1.146z" fill="#FF7133"></path><path d="M452.879 156.82l2.032-3.248 5.586 2.695 3.557-4.378 4.51 1.332.675-2.283-6.032-1.784-3.37 4.152-5.812-2.805-3.059 4.886 1.913 1.433zM265.266 342.762l3.829.119.492 6.182 5.576.862 1.125 4.568 2.31-.569-1.504-6.108-5.286-.819-.51-6.429-5.76-.177-.272 2.371z" fill="#FAB234"></path><path d="M466.318 226.911l3.682 7.538-13.964-1.314 10.282-6.224z" fill="#64B2FF"></path><path d="M96.592 48.434l6.851-2.05-2.659 10.869-4.192-8.819zM443.575 274.221l-1.693 6.946-8.036-7.783 9.729.837z" fill="#E4C4FF"></path><path d="M382.523 317.431l-3.679 8.91-9.115-12.015 12.794 3.105zM41.96 145.9l3.697-6.121 5.333 9.836-9.03-3.715zM144.015 217.961l.926 7.089-10.303-4.361 9.377-2.728z" fill="#FF7133"></path><path d="M248.784 313.517l-5.017 5.093-2.903-10.804 7.92 5.711zM24.164 265.305l-4.654-13.317 21.659 4.26-17.005 9.057z" fill="#64B2FF"></path><path d="M187.894 307.635l-8.919-4.092 15.079-10.084-6.16 14.176z" fill="#F79826"></path><path fill-rule="evenodd" clip-rule="evenodd" d="M191.512 143.345v5.757l5.678.99v-5.757l-5.678-.99zM190.764 150.761l-5.678-.99v5.757l5.678.99v-5.757zM192.878 134.001l-7.337-1.286v7.471l7.337 1.286v-7.471zM311.843 272.675v-5.757l-5.677-.99v5.757l5.677.99zM305.417 279.101v-5.757l-5.677-.99v5.757l5.677.99zM307.532 264.052v-7.468l-7.337-1.286v7.471l7.337 1.283zM183.595 280.366v-10.328l-10.181-1.778v10.328l10.181 1.778zM172.069 291.892v-10.325l-10.184-1.778v10.328l10.184 1.775zM175.861 264.898v-13.402l-13.16-2.304v13.402l13.16 2.304z" fill="#EFF0FF"></path><path fill-rule="evenodd" clip-rule="evenodd" d="M262.47 197.091a3.386 3.386 0 01-1.338 0h-.028l-49.171-8.688-3.575-.629-.883-.162c-2.159-.373-3.239-2.131-3.239-5.274v-9.934c0-1.874.384-3.115 1.152-3.722.141-.129.305-.233.483-.305a.505.505 0 01.186-.08 3.25 3.25 0 01.642-.107h.238c.18.001.359.019.535.052l53.657 9.473a3.465 3.465 0 012.677 2.047 7.706 7.706 0 01.589 3.254v9.934a7.833 7.833 0 01-.305 2.445c-.318.938-.853 1.509-1.62 1.696z" fill="#E85D8F"></path><path fill-rule="evenodd" clip-rule="evenodd" d="M259.188 183.46a.734.734 0 00-.641.027.61.61 0 00-.349.507.838.838 0 00.135.67l1.833 2.973-1.833 2.356a.667.667 0 00-.135.611c.042.238.165.454.349.611.18.155.404.249.641.269a.686.686 0 00.538-.306l2.167-2.729a.797.797 0 00.162-.482 1.035 1.035 0 00-.162-.535l-2.167-3.563a1.021 1.021 0 00-.538-.409z" fill="#FF65A7"></path><path fill-rule="evenodd" clip-rule="evenodd" d="M206.699 168.203l1.659-.284 2.466-.413c.286-.017.573.001.855.052l53.657 9.473c1.742.313 2.786 1.505 3.132 3.575.093.57.138 1.148.135 1.726v9.934c0 2.194-.527 3.532-1.58 4.015l-4.553.804c.767-.196 1.305-.758 1.607-1.687a7.804 7.804 0 00.306-2.445v-9.918a7.704 7.704 0 00-.59-3.254 3.47 3.47 0 00-2.676-2.048l-53.657-9.472a2.921 2.921 0 00-.535-.052l-.226-.006z" fill="#CB2069"></path><path fill-rule="evenodd" clip-rule="evenodd" d="M217.662 229.728h.016a15.267 15.267 0 004.525-1.097c1.564-.611 2.697-1.026 3.398-1.244l2.197.388v.052c0 .911-2.758 2.92-8.275 6.026l-1.283.721-3.936-.696c-.805-.145-1.483-.69-2.035-1.635h-.015a13.79 13.79 0 003.667-2.445c.581.009 1.162-.014 1.741-.07z" fill="#DFC8ED"></path><path fill-rule="evenodd" clip-rule="evenodd" d="M243.568 115.374a5.322 5.322 0 00-.59-.214 5.404 5.404 0 00-2.221-.214 3.156 3.156 0 00-1.446.749 3.219 3.219 0 00-.938 1.634c-.407 1.072-.469 2.366-.186 3.884.021.165.049.33.079.495a6.725 6.725 0 001.394 2.985 4.708 4.708 0 002.463 1.58 3.361 3.361 0 002.57-.483c.963-.66 1.525-1.82 1.686-3.48.233-1.55 0-3.135-.669-4.553a3.968 3.968 0 00-2.142-2.383zM233.769 134.814c1.927.428 4.595.954 8.005 1.579 3.871.732 6.495 1.204 7.872 1.418.611.074 1.078.135 1.366.187a1.009 1.009 0 00.669-.828 9.43 9.43 0 00-.511-2.249l-.855-2.139c-.34-.805-.563-1.385-.669-1.742a2.908 2.908 0 00-.856-1.311 12.784 12.784 0 01-1.635-1.366 10.177 10.177 0 01-1.527-1.124 27.79 27.79 0 00-1.715.535 3.304 3.304 0 01-1.634.213 14.515 14.515 0 01-1.794-.855 12.112 12.112 0 01-1.604-1.259c-.859.394-1.482.706-1.877.938a4.756 4.756 0 00-1.873 1.018c-.453.726-.83 1.497-1.124 2.3a16.18 16.18 0 00-1.018 2.573 1.532 1.532 0 00-.079 1.149c.162.55.449.874.859.963z" fill="#64B2FF"></path><path fill-rule="evenodd" clip-rule="evenodd" d="M330.69 103.753a.118.118 0 01.132.083.12.12 0 01-.004.042.102.102 0 01-.02.037c0-.018-.019-.045-.056-.079l-.052-.083z" fill="#ED9870"></path><path fill-rule="evenodd" clip-rule="evenodd" d="M270.128 242.739c-.572.749-1.259 1.054-2.06.917l-20.512-3.615c-.801-.143-1.478-.688-2.032-1.635a5.89 5.89 0 01-.859-3.156 4.47 4.47 0 01.859-2.839 1.992 1.992 0 012.032-.859l20.512 3.615c.801.143 1.487.669 2.06 1.58.573.953.871 2.047.858 3.159 0 1.178-.286 2.122-.858 2.833z" fill="#F0F0FF"></path><path fill-rule="evenodd" clip-rule="evenodd" d="M241.438 158.403c.084.031.169.053.257.068l12.717 2.248a.915.915 0 001.012-.483.794.794 0 00.07-.372 1.226 1.226 0 00-.305-.804 1.348 1.348 0 00-.777-.428l-11.232-1.983a.069.069 0 00-.016-.018.05.05 0 00-.024-.009l-2.331-.428c-.052 0-.107.089-.159.269a4.473 4.473 0 00-.055.749v.079c0 .216.018.432.055.645.052.232.107.348.159.348l.629.119zM255.644 165.15a3.771 3.771 0 00-2.973-3.535 2.45 2.45 0 00-2.112.52 2.438 2.438 0 00-.861 1.998 3.642 3.642 0 002.973 3.532 2.453 2.453 0 002.09-.507 2.521 2.521 0 00.883-2.008z" fill="#FFDB59"></path><path fill-rule="evenodd" clip-rule="evenodd" d="M253.743 164.881a.54.54 0 00-.082-.305l-1.149-1.876a.494.494 0 00-.306-.242.417.417 0 00-.348 0 .332.332 0 00-.186.269.583.583 0 00.079.376l.99 1.58-.99 1.256a.41.41 0 00-.079.323.495.495 0 00.186.306.667.667 0 00.348.159.505.505 0 00.306-.131l1.149-1.501a.387.387 0 00.082-.214z" fill="#FD9C3C"></path><path fill-rule="evenodd" clip-rule="evenodd" d="M192.878 134.001v7.471l-7.337-1.286v-7.471l7.337 1.286z" fill="#EFF0FF"></path><path fill-rule="evenodd" clip-rule="evenodd" d="M190.764 150.761v5.757l-5.678-.99v-5.757l5.678.99z" fill="#fff"></path><path fill-rule="evenodd" clip-rule="evenodd" d="M191.512 143.345l5.678.99v5.757l-5.678-.99v-5.757z" fill="#EFF0FF"></path><path fill-rule="evenodd" clip-rule="evenodd" d="M221.399 201.937a.501.501 0 01.563-.214l33.492 5.891a.97.97 0 01.59.428c.144.272.218.576.214.883v.028a1.16 1.16 0 01-.214.748.535.535 0 01-.59.242l-33.492-5.891a.873.873 0 01-.563-.456 1.532 1.532 0 01-.241-.855v-.031a1.182 1.182 0 01.241-.773z" fill="#DFC8ED"></path><path fill-rule="evenodd" clip-rule="evenodd" d="M216.66 209.127l-.305-.804c-.123-.305-.214-.516-.266-.641a1.151 1.151 0 00-.306-.508 8.358 8.358 0 01-.587-.51 5.541 5.541 0 01-.537-.455 4.133 4.133 0 00-.611.162 1.574 1.574 0 01-.563.052 3.131 3.131 0 01-.644-.373 4 4 0 01-.587-.483c-.306.145-.529.247-.669.306-.243.073-.47.191-.67.348a5.352 5.352 0 00-.403.831 8.56 8.56 0 00-.348.883.612.612 0 00-.052.428.567.567 0 00.305.376c.697.204 1.651.453 2.864.748 1.375.341 2.304.564 2.786.67l.508.082a.299.299 0 00.164-.095.298.298 0 00.077-.174 3.267 3.267 0 00-.156-.843zM212.938 201.616a.904.904 0 00-.51.241 1.219 1.219 0 00-.348.563 2.668 2.668 0 00-.052 1.418c.043.476.219.931.507 1.313.229.286.537.499.886.612a1.043 1.043 0 00.917-.135c.356-.204.56-.611.611-1.222a2.862 2.862 0 00-.241-1.659 1.573 1.573 0 00-.749-.917 1.763 1.763 0 00-1.021-.214z" fill="#fff"></path><path fill-rule="evenodd" clip-rule="evenodd" d="M206.885 204.238c0-1.803.635-3.229 1.904-4.278 1.222-1.055 2.721-1.422 4.498-1.1a7.958 7.958 0 014.541 2.695 7.957 7.957 0 011.857 4.944c0 1.803-.611 3.229-1.833 4.278-1.265 1.035-2.782 1.4-4.55 1.097a8.12 8.12 0 01-6.402-7.639l-.015.003zM221.479 210.044a2.028 2.028 0 01-.187-.917c-.01-.296.054-.59.187-.856.107-.214.25-.305.428-.269l25.838 4.553a.635.635 0 01.428.428c.129.288.193.601.186.917v.027c.015.297-.05.592-.186.856-.107.214-.251.305-.428.269l-25.835-4.574a.63.63 0 01-.431-.434z" fill="#DFC8ED"></path><path fill-rule="evenodd" clip-rule="evenodd" d="M221.399 176.866a.496.496 0 01.563-.214l33.492 5.891a.985.985 0 01.59.431c.144.271.218.575.214.883v.027c.017.267-.059.531-.214.749a.54.54 0 01-.59.241l-33.492-5.891a.866.866 0 01-.563-.455 1.533 1.533 0 01-.241-.856v-.018a1.182 1.182 0 01.241-.788zM221.479 184.987a2.021 2.021 0 01-.187-.916v-.028c-.01-.296.054-.59.187-.855.107-.214.25-.306.428-.269l25.838 4.553a.62.62 0 01.428.427c.129.288.193.601.186.917v.028c.014.296-.05.591-.186.855-.107.214-.251.306-.428.269l-25.835-4.562a.635.635 0 01-.431-.419zM278.897 162.901l1.996.345c.299.053.572.205.776.431.196.222.304.508.305.804a.794.794 0 01-.305.669.911.911 0 01-.776.186l-12.718-2.248a1.183 1.183 0 01-.241-.068h.052l10.658 1.876a.662.662 0 00.611-.213.81.81 0 00.305-.67 1.254 1.254 0 00-.305-.803.893.893 0 00-.358-.309zM278.696 167.103a.493.493 0 01.305.241l1.149 1.873a.568.568 0 01.083.306.391.391 0 01-.083.241l-1.149 1.497a.499.499 0 01-.305.135.698.698 0 01-.349-.159.514.514 0 01-.186-.324.398.398 0 01.079-.305l.99-1.259-.99-1.577a.583.583 0 01-.079-.376.34.34 0 01.186-.269.418.418 0 01.349-.024zM259.188 183.46c.224.076.414.227.538.427l2.167 3.563c.102.16.158.345.162.535a.802.802 0 01-.162.483l-2.167 2.728a.679.679 0 01-.538.306 1.127 1.127 0 01-.641-.269 1.04 1.04 0 01-.349-.611.667.667 0 01.135-.611l1.833-2.356-1.833-2.973a.825.825 0 01-.135-.669.613.613 0 01.349-.508.73.73 0 01.641-.045zM259.188 209.701c.224.077.414.228.538.428l2.167 3.563c.102.16.158.345.162.535a.802.802 0 01-.162.483l-2.167 2.731a.682.682 0 01-.538.306 1.127 1.127 0 01-.641-.269 1.04 1.04 0 01-.349-.611.667.667 0 01.135-.611l1.833-2.356-1.833-2.97a.833.833 0 01-.135-.673.613.613 0 01.349-.507.73.73 0 01.641-.049z" fill="#fff"></path><path fill-rule="evenodd" clip-rule="evenodd" d="M272.456 104.291l-.587.373.159.831c.139.062.274.133.403.214a.533.533 0 01.306.348c.018.171.009.343-.027.51-.034.123-.08.285-.132.48l-.831-.134-.428.51c.111.26.2.529.266.804a1.261 1.261 0 01-.428.4.823.823 0 01-.611.027l-.483-.534h-.748l-.242.696a11.49 11.49 0 01-1.222-.403l.055-.831-.611-.507-.455.079a.803.803 0 01-.428-.052 1.935 1.935 0 01-.306-.535 8.933 8.933 0 01-.214-.565l.59-.321-.189-.776c-.355-.25-.611-.428-.721-.535-.035-.344.04-.69.213-.99.133-.018.268-.018.401 0 .142.022.286.032.431.028l.4-.538-.306-.856c.161-.063.313-.144.456-.241.15-.08.314-.135.482-.162.118.07.222.161.306.269.071.09.173.206.306.348h.776l.162-.669c.409.066.812.168 1.204.306l.079.916.645.563.611-.269c.301.365.543.776.718 1.216zm-2.463-.538a1.727 1.727 0 00-.802-.378 1.73 1.73 0 00-.885.073c-.611.203-.922.677-.935 1.42a1.965 1.965 0 00.935 1.739 1.599 1.599 0 001.797.214 1.337 1.337 0 00.801-1.5 1.972 1.972 0 00-.911-1.568zm-33.251 119.549c.378.43.586.983.586 1.555a1.631 1.631 0 01-.586 1.339 1.606 1.606 0 01-1.421.348 2.291 2.291 0 01-1.418-.831c-.38-.428-.59-.98-.59-1.552a1.636 1.636 0 01.59-1.339 1.71 1.71 0 011.418-.348 2.488 2.488 0 011.421.828zm3.88 2.118a1.636 1.636 0 01.59-1.339 1.69 1.69 0 011.418-.348 2.488 2.488 0 011.421.828c.378.429.588.98.589 1.552a1.65 1.65 0 01-.589 1.342 1.606 1.606 0 01-1.421.348 2.312 2.312 0 01-1.418-.831c-.38-.428-.59-.98-.59-1.552zm11.514 2.138a1.636 1.636 0 01-.59 1.339 1.583 1.583 0 01-1.418.348 2.32 2.32 0 01-1.42-.831 2.349 2.349 0 01-.587-1.552 1.631 1.631 0 01.587-1.339 1.72 1.72 0 011.42-.348 2.443 2.443 0 011.418.831c.381.428.591.982.59 1.556v-.004zm.269 16.226c.091.191.136.4.131.611v.028a.918.918 0 01-.131.534c-.092.162-.199.232-.324.214l-19.758-3.48c-.124-.019-.226-.125-.305-.321a1.177 1.177 0 01-.135-.59v-.024c-.01-.197.037-.392.135-.562a.32.32 0 01.305-.162l19.758 3.48a.464.464 0 01.324.275v-.003z" fill="#F2F2F2"></path><path fill-rule="evenodd" clip-rule="evenodd" d="M212.08 84.824c1.383-1.63 3.686-2.157 6.908-1.58l37.701 6.655 16.946 2.985c5.623 1 8.434 4.362 8.434 10.084v51.714l-2.166.99v-51.247c0-5.732-2.813-9.093-8.437-10.083l-54.647-9.638c-1.903-.344-3.482-.304-4.739.12zM278.347 251.6c1.035-1.222 1.554-3.055 1.556-5.5v-72.113l.131.028a4.954 4.954 0 001.607.052l.428-.08v70.683c0 3.793-1.241 6.103-3.722 6.93z" fill="#489BFD"></path><path fill-rule="evenodd" clip-rule="evenodd" d="M218.347 92.67c.378.429.588.98.59 1.553a1.635 1.635 0 01-.59 1.338 1.598 1.598 0 01-1.421.349 2.3 2.3 0 01-1.418-.832c-.38-.427-.59-.98-.59-1.552a1.619 1.619 0 01.137-.739 1.62 1.62 0 01.453-.6 1.711 1.711 0 011.418-.348 2.492 2.492 0 011.421.832z" fill="#F2F2F2"></path><path fill-rule="evenodd" clip-rule="evenodd" d="M208.358 194.154l2.466-.415c.286-.017.573 0 .855.052l53.657 9.472c1.742.314 2.786 1.506 3.132 3.575.093.571.138 1.148.135 1.727v9.933c0 2.196-.527 3.535-1.58 4.016l-4.553.803c.767-.195 1.305-.758 1.607-1.686a7.804 7.804 0 00.306-2.445v-9.912a7.711 7.711 0 00-.59-3.255 3.463 3.463 0 00-2.676-2.047l-53.658-9.472a2.818 2.818 0 00-.534-.052h-.242l1.675-.294z" fill="#E4C4FF"></path><path fill-rule="evenodd" clip-rule="evenodd" d="M262.47 223.33a3.386 3.386 0 01-1.338 0h-.028l-36.6-6.466c.107-.077.223-.153.348-.226.232-.127.937-.422 2.115-.886.877-.355 1.436-.694 1.686-1.018.377-.428.333-.963-.134-1.604-2.357.087-4.927.98-7.709 2.677-.102.057-.267.158-.495.305l-8.382-1.485-3.575-.611-.883-.162c-2.159-.373-3.239-2.131-3.239-5.274v-9.937c0-1.874.384-3.115 1.152-3.722.141-.129.305-.233.483-.305a.558.558 0 01.186-.08c.21-.058.425-.093.642-.107h.238c.18.001.359.018.535.052l53.657 9.473a3.457 3.457 0 012.677 2.047 7.706 7.706 0 01.589 3.254v9.956a7.83 7.83 0 01-.305 2.444c-.318.917-.853 1.479-1.62 1.675zm-41.071-21.39c-.17.222-.255.497-.241.776v.028c-.006.303.078.6.241.855a.868.868 0 00.563.456l33.492 5.891a.541.541 0 00.59-.242c.156-.217.231-.481.214-.748v-.028a1.838 1.838 0 00-.214-.883.97.97 0 00-.59-.428l-33.492-5.891a.506.506 0 00-.563.211v.003zm-14.514 2.298a8.117 8.117 0 006.402 7.639c1.766.304 3.282-.062 4.55-1.097 1.222-1.053 1.833-2.479 1.833-4.278a7.969 7.969 0 00-6.399-7.639c-1.768-.32-3.267.047-4.498 1.1-1.256 1.047-1.886 2.472-1.888 4.275zm6.053-2.625c.353-.033.708.042 1.018.214.359.197.628.525.748.917.245.516.329 1.094.242 1.659-.055.611-.259 1.018-.611 1.222a1.047 1.047 0 01-.917.135 1.868 1.868 0 01-.886-.612 2.566 2.566 0 01-.507-1.313 2.668 2.668 0 01.052-1.418 1.21 1.21 0 01.348-.562.897.897 0 01.513-.239v-.003zm3.722 7.514c.098.268.161.547.186.831a.303.303 0 01-.241.269l-.507-.083c-.483-.107-1.412-.331-2.787-.669a92.365 92.365 0 01-2.863-.748.575.575 0 01-.306-.376.617.617 0 01.052-.428c.1-.301.216-.595.349-.883.11-.288.245-.566.403-.831.199-.157.426-.275.669-.349.141-.05.364-.152.669-.305.18.179.377.341.587.483.199.149.416.274.645.372.189.017.379 0 .562-.051.199-.07.404-.124.611-.162.17.163.349.315.538.455.247.232.446.403.587.51.144.139.25.314.305.507.052.126.144.34.266.642l.275.816zm4.819.938a.62.62 0 00.428.428l25.838 4.553c.177.036.306-.055.428-.269.136-.264.201-.559.186-.856v-.027a2.128 2.128 0 00-.186-.917.635.635 0 00-.428-.428l-25.835-4.562c-.178-.033-.306.055-.428.269a1.785 1.785 0 00-.187.856v.015c-.011.316.052.63.184.917v.021zm37.709-.364a.733.733 0 00-.641.028.607.607 0 00-.349.507.847.847 0 00.135.672l1.833 2.97-1.833 2.356a.69.69 0 00-.143.289.687.687 0 00.008.322c.042.239.165.455.349.612.18.155.405.249.641.269a.693.693 0 00.538-.306l2.167-2.732a.798.798 0 00.162-.483 1.035 1.035 0 00-.162-.534l-2.167-3.563a1.026 1.026 0 00-.538-.407z" fill="#fff"></path><path fill-rule="evenodd" clip-rule="evenodd" d="M227.798 227.766l7.028 1.223c.803.143 1.488.669 2.059 1.579a6.04 6.04 0 01.859 3.187 4.368 4.368 0 01-.859 2.812c-.571.748-1.256 1.051-2.059.916l-16.583-2.909 1.283-.721c5.515-3.106 8.273-5.115 8.275-6.026l-.003-.061z" fill="#F0F0FF"></path><path fill-rule="evenodd" clip-rule="evenodd" d="M320.203 161.978c-.251.037-.5.089-.745.156-1.222.351-1.834 1.426-1.834 3.227v13.344c0 2.707 1.345 4.31 4.034 4.81l13.096 2.294a5.729 5.729 0 001.861.061l4.22-.742c1.261-.395 1.893-1.523 1.895-3.383v-13.344c0-2.689-1.335-4.261-4.003-4.718l-13.097-2.294a5.26 5.26 0 00-1.8-.061h-.125l-3.502.65z" fill="#EFF0FF"></path><path fill-rule="evenodd" clip-rule="evenodd" d="M336.618 185.87a5.729 5.729 0 01-1.861-.061l-13.096-2.294c-2.689-.5-4.033-2.103-4.033-4.81v-13.344c0-1.801.611-2.876 1.833-3.227.245-.067.494-.119.745-.156a5.207 5.207 0 011.458.092l13.096 2.298c2.649.475 3.973 2.046 3.973 4.715v13.344c0 1.136-.229 2.007-.685 2.606a2.589 2.589 0 01-1.43.837z" fill="#4A5BAF"></path><path fill-rule="evenodd" clip-rule="evenodd" d="M336.618 185.87a2.6 2.6 0 001.427-.837c.456-.611.685-1.47.685-2.606v-13.329c0-2.669-1.324-4.24-3.973-4.715l-13.096-2.313a5.207 5.207 0 00-1.458-.092l3.505-.65h.126a5.253 5.253 0 011.799.061l13.097 2.294c2.668.457 4.003 2.029 4.003 4.718v13.344c0 1.862-.632 2.99-1.895 3.383l-4.22.742z" fill="#28337D"></path><path fill-rule="evenodd" clip-rule="evenodd" d="M335.885 174.293a.565.565 0 01.342.281l1.335 2.172c.061.103.093.22.092.339a.462.462 0 01-.092.282l-1.335 1.738a.558.558 0 01-.342.153.785.785 0 01-.403-.186.582.582 0 01-.217-.37.468.468 0 01.094-.373l1.146-1.46-1.146-1.834a.667.667 0 01-.094-.434.395.395 0 01.217-.305.464.464 0 01.403-.003z" fill="#fff"></path><path d="M331.476 166.174l.791.125.492.077.248.039c.183.031.238.104.253.306a1.029 1.029 0 01-.657.999.671.671 0 01-.324.024 1.152 1.152 0 01-.712-.495 1.396 1.396 0 01-.327-.855c0-.171.08-.248.23-.223l.006.003zm-5.873 9.347a1.248 1.248 0 01-.242-.223 5.415 5.415 0 01-.565-.856 6.256 6.256 0 01-.226-.748 1.096 1.096 0 01.046-.422c0-.183 0-.385.018-.611-.156-.263-.342-.553-.51-.856a5.561 5.561 0 01-.611-1.546.917.917 0 01.042-.69c-.1-.398-.409-.813-.07-1.152a3.008 3.008 0 01-.095-1.681c.064-.229.091-.468.08-.706a1.408 1.408 0 01.092-.571c.071-.129.162-.247.268-.349a.667.667 0 01.444-.754l.268.391a.464.464 0 01-.204.449.562.562 0 00-.156.4c0 .251.037.514.061.81-.306.403-.238.947-.04 1.528-.339.492 0 1.036.147 1.574-.205.305-.128.672-.037 1.041.206.728.533 1.416.966 2.036a.439.439 0 01.091.198l.12.703a.703.703 0 00.088.779c.02.027.031.059.034.092a1.162 1.162 0 00.354.843l-.363.327v-.006zm6.548-10.56c-.519-.083-.941.165-1.317.764a2.264 2.264 0 00-.22-.049c-.306-.055-.611-.119-.892-.165l-.233-.034a1.023 1.023 0 00-.843.254c-.51.476-.611 1.934.306 2.783.149.138.305.269.44.416a.61.61 0 01.159.571c-.028.126-.086.242-.12.367-.05.125-.081.257-.091.391V172.212a.122.122 0 01-.058-.086c-.095-.519-.199-1.042-.278-1.561a1.223 1.223 0 00-.193-.559c-.458-.663-.917-1.339-1.375-1.996a8.852 8.852 0 01-1.47-3.019 3.925 3.925 0 00-.137-.409.637.637 0 00-.465-.462.465.465 0 00-.305.058c-.104.062-.202.135-.306.196a.887.887 0 00-.498-.428.164.164 0 00-.088 0 .964.964 0 00-.715.847c0 .061-.034.14-.077.159-.244.103-.284.351-.272.611 0 .22.052.443.08.66-.324.443-.245.981-.049 1.549-.352.495.018 1.042.14 1.567a.944.944 0 00-.104.676c.1.6.307 1.178.612 1.705.165.305.357.611.501.837l.128.758a.7.7 0 00.086.782.23.23 0 01.03.128c.004.249.095.488.257.676.177.244.342.495.528.77-.22.116-.44.241-.666.351-.519.245-1.048.468-1.564.724a3.216 3.216 0 00-1.528 1.656c-.244.575-.416 1.204-.611 1.806a.567.567 0 00.061.471c.131.26.254.522.4.828l.181.028 6.377 1.011h.131c.144 0 .351-.183.385-.37a.427.427 0 00-.22-.434 2.55 2.55 0 00-1.03-.513 24.411 24.411 0 00-.916-.162l-.306-.046-.351-.055-.178-.03-.305-.049-.018-.058c.122-.12.241-.239.357-.361.327-.321.672-.611.969-.975.176-.229.31-.489.394-.767a.462.462 0 00-.15-.59.472.472 0 00-.205-.079 3.842 3.842 0 00-.323-.064 6.41 6.41 0 00-.645-.067c-.306-.022-.611 0-.917 0 .182-.044.367-.07.553-.08a5.66 5.66 0 011.241.025c.088.013.176.03.263.052a.483.483 0 01.355.235.492.492 0 01.039.425.939.939 0 01-.055.208c-.141.271-.278.543-.428.809-.083.147-.183.275-.306.434a.637.637 0 00.138 0c.862-.091 1.726-.177 2.588-.281a2.403 2.403 0 001.589-.678c.093-.074.196-.135.305-.181.016.076.025.153.028.23 0 .28.095.553.269.773.1.138.187.285.26.44.388.916.77 1.833 1.152 2.75l.082.18c.067 0 .125.031.19.04l1.766.281a.486.486 0 00.467-.306.372.372 0 00-.113-.385 1.235 1.235 0 00-.305-.207 3.823 3.823 0 00-.474-.159.852.852 0 01-.611-.566c-.118-.3-.22-.606-.306-.916-.214-.89-.409-1.776-.611-2.662a.564.564 0 010-.305 2.51 2.51 0 00-.064-1.834 14.28 14.28 0 01-.354-1.243c-.153-.612-.288-1.223-.428-1.834a.232.232 0 010-.091c.036-.205.079-.404.119-.612.136.11.294.187.464.227.187.03.306-.062.45-.272l-.285-.575.685.107c.046-.169.102-.335.168-.498a.306.306 0 00-.07-.409c-.147-.141-.306-.251-.462-.382-.156-.132-.25-.22-.363-.324 0-.098 0-.159.024-.272a2.994 2.994 0 01-.449-.208 5.124 5.124 0 01-.55-.409 4.167 4.167 0 00-.404-.382 2.637 2.637 0 00-.611-.285 3.78 3.78 0 01-1.527-.883 1.441 1.441 0 01-.419-.641c-.214-.783.171-1.528.837-1.553a2.16 2.16 0 01.44.034c.156.024.306.055.465.086.204.039.409.116.611.177-.028 1.03.397 1.729 1.152 1.928.054.015.109.027.165.037a1.048 1.048 0 00.849-.202 1.255 1.255 0 00.391-1.283l.126-.123a1.883 1.883 0 00-1.045-1.332 1.781 1.781 0 00-.437-.134M213.473 173.611v1.061c0 .11.034.155.129.177a5.125 5.125 0 013.144 2.194 6.284 6.284 0 011.201 4.608c-.306 2.34-2.069 3.792-4.162 3.483-.086 0-.119 0-.113.116 0 .306 0 .633.015.944 0 .101.031.144.101.156h.027c.305.03.611.044.917.043 2.5-.122 4.278-2.249 4.33-5.195a7.451 7.451 0 00-.657-3.266c-1.085-2.411-2.729-3.856-4.92-4.318" fill="#fff"></path><path d="M213.516 176.034a2.616 2.616 0 00-2.304.651c-.064.058-.058.113 0 .193.192.247.382.498.571.751.037.049.068.077.098.083a.12.12 0 00.053-.012.14.14 0 00.045-.031c.203-.186.448-.321.713-.395.265-.075.544-.086.815-.033.112.022.224.051.333.086 1.341.44 2.264 2.053 2.047 3.557-.168 1.182-1.085 1.958-2.139 1.818h-.107a2.653 2.653 0 01-1.589-.981.18.18 0 00-.085-.067c-.031 0-.058 0-.089.042-.18.19-.367.37-.547.554-.088.088-.088.103 0 .213a3.91 3.91 0 002.316 1.455h.043c.284.044.572.044.856 0 1.699-.251 2.713-2.026 2.346-4.113-.32-1.833-1.683-3.419-3.245-3.752l-.131-.025M213.369 172.389h-.058a7.84 7.84 0 00-1.094-.058c-2.279.162-3.859 1.424-4.73 3.762a7.478 7.478 0 00-.425 2.575c0 .147 0 .165.147.187l.742.131c.165.031.156.025.169-.168.015-.398.051-.794.106-1.189.511-2.792 2.686-4.452 5.241-4.002l-.018-1.036c0-.138 0-.171-.086-.187" fill="#fff"></path><path d="M213.553 178.455c-.725-.132-1.287.436-1.275 1.28.013.843.612 1.625 1.327 1.754.715.122 1.286-.449 1.28-1.287-.006-.837-.611-1.619-1.335-1.747" fill="#fff"></path><path fill-rule="evenodd" clip-rule="evenodd" d="M184.154 214.627c.269-.22.532-.455.792-.703.32.26.638.507.95.737-.581.021-1.162.01-1.742-.034zM188.539 201.066c.23-.155.395-.257.495-.305 2.785-1.697 5.356-2.59 7.712-2.677.465.642.508 1.179.132 1.607-.249.32-.811.659-1.687 1.018-1.175.464-1.88.758-2.114.883a4.21 4.21 0 00-.349.226 1.454 1.454 0 00-.669 1.057 12.644 12.644 0 012.197 4.431c.17.591.29 1.195.361 1.806l-3.264.657a52.675 52.675 0 00-7.284-4.685 12.73 12.73 0 00-.737-.36 695.249 695.249 0 013.401-2.411 74.855 74.855 0 011.806-1.247z" fill="#FFC3C2"></path><path fill-rule="evenodd" clip-rule="evenodd" d="M194.617 209.127a8.322 8.322 0 01-.226 3.055 6.99 6.99 0 00-.566.147c-.701.204-1.833.618-3.398 1.244a15.257 15.257 0 01-4.525 1.1 25.88 25.88 0 01-.99-.685 8.25 8.25 0 00.281-.305 9.071 9.071 0 000-1.418 3.213 3.213 0 00-.373-1.176 8.048 8.048 0 00-1.421-1.797 7.01 7.01 0 00-3.352-1.8 10.8 10.8 0 012.17-1.98l1.109-.788c.241.107.486.229.736.36a52.595 52.595 0 017.291 4.685l3.264-.642z" fill="#FFC3C2"></path><path opacity=".25" d="M137.081 356.983c20.665-6.961 35.36-18.712 32.822-26.247-2.538-7.535-21.348-8.001-42.013-1.04-20.666 6.961-35.36 18.713-32.823 26.248 2.539 7.535 21.349 8 42.014 1.039z" fill="#374291"></path><path fill-rule="evenodd" clip-rule="evenodd" d="M154.826 339.468c-.458.766-1.546 1.715-3.263 2.848-2.31 1.53-4.512 2.295-6.607 2.295a60.2 60.2 0 00-9.909.7c-2.553.45-5.139.684-7.731.699-.564 0-1.558-.315-2.982-.947-.544-.271-.98-.475-1.308-.611a8.317 8.317 0 00-.382-.174 2.262 2.262 0 01-.043-.449c.007-.971.088-1.939.245-2.897.04-.306.088-.611.14-.917.318.496.689.956 1.107 1.372 5.265 1.198 9.589-.799 12.971-5.992.61-.953 1.097-1.98 1.448-3.056-.055-.455-.107-.916-.159-1.35a3.83 3.83 0 01.281.699.668.668 0 00.04.251l.04.049v-.248l1.693.896a58.13 58.13 0 01-.688 1.949c-.725 1.864-1.087 3.096-1.085 3.695 0 2.037 1.936 3.055 5.806 3.055 3.141 0 6.121-1.131 8.941-3.395.377-.299.739-.582 1.088-.849a.155.155 0 00.039.098 3.82 3.82 0 01.645 1.799l-.327.48z" fill="#F79826"></path><path fill-rule="evenodd" clip-rule="evenodd" d="M153.375 337.922c-2.822 2.261-5.802 3.393-8.941 3.395-3.871 0-5.806-1.019-5.806-3.056 0-.599.362-1.83 1.085-3.694.272-.733.498-1.381.687-1.95l.844.453c.531.335 1.083.635 1.653.898a4.248 4.248 0 001.732.55l7.007 1.048c1.369.165 2.309.664 2.82 1.497-.344.267-.704.553-1.081.859z" fill="#FAB234"></path><path fill-rule="evenodd" clip-rule="evenodd" d="M123.026 344.437c.328.146.764.35 1.308.611 1.426.633 2.42.949 2.982.947a45.968 45.968 0 007.731-.7 60.31 60.31 0 019.909-.699c2.097 0 4.299-.765 6.607-2.295 1.717-1.135 2.805-2.084 3.263-2.848l.306-.498a4.46 4.46 0 010 .849v.049a5.27 5.27 0 01-.162.999 3.525 3.525 0 01-.886 1.547 12.06 12.06 0 01-4.993 3.245c-.787.272-1.596.477-2.417.611-1.369.299-3.61.482-6.723.547h-.284a42.867 42.867 0 00-3.141.201 5.92 5.92 0 01-1.931.349l-2.017.501c-.717.169-1.442.302-2.173.397-.402.096-.81.163-1.222.202-2.065.165-3.838-.152-5.317-.951-.511-.232-.859-.747-1.045-1.546v-.052a6.722 6.722 0 01-.183-1.146c0-.155 0-.32-.018-.501.128.049.253.107.406.181zM119.219 342.414a12.683 12.683 0 01-2.536-.449 4.602 4.602 0 01-1.571-.899.865.865 0 01-.284-.305l-.306-.349a14.72 14.72 0 01-.119-.849 12.306 12.306 0 01-.082-2.545c.042-.758.076-1.432.1-2.023a8.328 8.328 0 002.075 1.421 12.073 12.073 0 004.914-1.421c.081.962.287 1.91.611 2.82a9.53 9.53 0 00.987 2.173c-.052.305-.101.611-.141.916-1.177 1.096-2.393 1.599-3.648 1.51zM138.353 322.491c.577 1.107.72 2.39.4 3.597l-.079.198a12.384 12.384 0 01-.611 1.8 160.346 160.346 0 01-.504-6.667c.322.31.591.673.794 1.072z" fill="#F79826"></path><path fill-rule="evenodd" clip-rule="evenodd" d="M116.49 336.422a12.057 12.057 0 004.914-1.421 13.438 13.438 0 01.039-2.322 66.73 66.73 0 00.242-10.885 272.44 272.44 0 01-.159-28.863c.134-3.329.389-6.641.764-9.937a149.53 149.53 0 00.241-30.608 10.903 10.903 0 00-1.268-4.346 8.38 8.38 0 004.47 2.476c-.131 5.549.175 11.1.917 16.601a65.405 65.405 0 01-.241 19.174 219.405 219.405 0 00-1.773 13.139 43.384 43.384 0 00.486 12.082 58.739 58.739 0 01.281 18.777c-.048.355-.094.712-.14 1.073-.022.131-.043.265-.061.4-.422 3.227-.785 6.43-1.088 9.61 5.266 1.198 9.59-.8 12.971-5.992a13.307 13.307 0 001.448-3.056c-.055-.455-.106-.917-.158-1.35a111.7 111.7 0 01-.123-1.049c-.064-.611-.122-1.222-.18-1.833a160.346 160.346 0 01-.504-6.667 154.882 154.882 0 015.76-51.457 89.856 89.856 0 002.658-12.284c.12-.815.222-1.63.306-2.444.324-2.885.432-5.79.324-8.691a499.395 499.395 0 01-.162-9.487c0-.227.042-4.465.027-4.685-.162.746-2.007 3.973-2.34 4.681-1.476 3.163-3.224 4.984-6.017 6.017-.348.131-.681.501-1.002.669-3.814 1.528-6.335 2.338-10.365 2.005l-7.853-1.397c.207.48.442.947.703 1.4-.377-.51-.72-1.044-1.027-1.598a77.178 77.178 0 00-4.308-2.521 44.36 44.36 0 00-.04 4.018 161.43 161.43 0 01-.364 19.425c-.509 6.29-1.1 12.565-1.772 18.825a81.891 81.891 0 00.202 18.673c.725 5.959 1.45 11.901 2.175 17.827.106.886.208 1.768.306 2.646.55 4.47 1.12 8.928 1.711 13.375z" fill="#00558C"></path><path fill-rule="evenodd" clip-rule="evenodd" d="M111.485 327.075a99.114 99.114 0 00-2.053-17.677 112.272 112.272 0 01-2.295-18.826 64.399 64.399 0 011.891-17.723 47.545 47.545 0 001.17-17.325 297.817 297.817 0 00-2.096-15.584c-.159-.969.694-1.555.611-2.518 1.278 1.5 1.727 2.255 3.31 3.019.753.377 1.505.768 2.255 1.173a44.385 44.385 0 00-.04 4.019c.269 6.476.147 12.963-.364 19.424a721.55 721.55 0 01-1.772 18.826 81.891 81.891 0 00.202 18.673c.725 5.959 1.45 11.901 2.175 17.827.106.886.208 1.768.306 2.646.544 4.481 1.108 8.942 1.693 13.381a8.31 8.31 0 01-2.075-1.421c-1.727-1.65-2.694-4.064-2.9-7.242-.003-.211-.012-.437-.018-.672zm9.949 5.591c.377-3.615.457-7.255.241-10.884a272.174 272.174 0 01-.158-28.863c.134-3.329.389-6.641.764-9.937a149.54 149.54 0 00.241-30.609 10.903 10.903 0 00-1.268-4.345 8.372 8.372 0 004.47 2.475 105.56 105.56 0 00.917 16.602 65.37 65.37 0 01-.242 19.174 219.401 219.401 0 00-1.772 13.139 43.384 43.384 0 00.486 12.082 58.738 58.738 0 01.281 18.777c-.049.354-.095.712-.14 1.072-.022.132-.043.266-.061.401-.422 3.226-.785 6.43-1.088 9.61a8.059 8.059 0 01-1.106-1.372 9.487 9.487 0 01-.987-2.173 11.26 11.26 0 01-.612-2.82 13.468 13.468 0 01.034-2.316v-.013zm-2.536-88.332c.207.48.442.947.703 1.399a14.376 14.376 0 01-1.027-1.598c.11.077.217.132.324.211v-.012z" fill="#0D69A5"></path><path fill-rule="evenodd" clip-rule="evenodd" d="M138.796 327.487a6.047 6.047 0 01-.562 2.445c-.064-.612-.122-1.223-.18-1.834.249-.583.453-1.185.611-1.8a6.7 6.7 0 01.131 1.189zm-24.286 12.932l.306.348a.865.865 0 00.284.305c.459.401.993.706 1.57.899.828.235 1.678.386 2.537.449 1.252.088 2.461-.412 3.627-1.497a18.606 18.606 0 00-.245 2.896c-.001.151.013.302.043.45 0 .18 0 .345.018.501-1.143.996-2.29 1.445-3.443 1.347a14.191 14.191 0 01-2.576-.4 4.538 4.538 0 01-2.298-1.448 23.648 23.648 0 01-.242-2.995 4.519 4.519 0 01.285-1.699c.036.226.076.51.131.844h.003z" fill="#200B0A"></path><path fill-rule="evenodd" clip-rule="evenodd" d="M122.846 345.909l-.284.15a27.565 27.565 0 010 3.096c.028 1.222.436 2.005 1.222 2.349a9.543 9.543 0 004.953.847 26.945 26.945 0 005.036-.947l.443-1.834c1.395-.362 3.463-.596 6.203-.7 2.793-.065 4.874-.269 6.243-.611 3.892-.696 6.658-2.294 8.296-4.791a5.204 5.204 0 00.201-1.898 2.478 2.478 0 00-.162-.699 3.522 3.522 0 01-.886 1.546 12.038 12.038 0 01-4.993 3.245c-.786.273-1.595.477-2.417.611-1.369.3-3.609.482-6.722.547h-.284a42.835 42.835 0 00-3.142.202 5.883 5.883 0 01-1.931.348l-2.016.501c-.717.17-1.442.302-2.173.397a8.724 8.724 0 01-1.222.202c-2.066.165-3.838-.152-5.317-.95-.511-.232-.86-.748-1.045-1.546l-.003-.065z" fill="#181A1B"></path><path fill-rule="evenodd" clip-rule="evenodd" d="M137.146 158.04l-.015.015c-.776.911-1.164 2.164-1.164 3.761 0 2.408.517 3.559 1.552 3.453a9.167 9.167 0 00-.134 4.205c.287 1.32.751 2.114 1.393 2.383a10.264 10.264 0 01-2.839-.241.313.313 0 00-.052-.083l-.055-.107c-.033-.033-.052-.061-.052-.079l-.082-.079a.206.206 0 00-.052-.08.302.302 0 00-.055-.082.825.825 0 00-.107-.135.396.396 0 01-.079-.107c-.037-.033-.055-.061-.055-.079a1.891 1.891 0 00-.159-.187c-.037-.036-.055-.064-.055-.079a.367.367 0 01-.08-.055.379.379 0 00-.052-.08l-.055-.055a.732.732 0 01-.107-.134c-.036-.015-.055-.034-.055-.052l-3.721-2.545a2.617 2.617 0 00-.306-.132c-.332-.14-.671-.266-1.018-.376-1.32-.407-3.889-.889-7.709-1.445.106-.719.195-1.455.266-2.209a44.55 44.55 0 00.162-2.264 4 4 0 001.833 1.595 5.659 5.659 0 001.834.44 27.873 27.873 0 004.418-.187c1.125-.036 2.245-.822 3.361-2.356a8.847 8.847 0 012.17-2.197 2.858 2.858 0 011.069-.427z" fill="#FFB4AF"></path><path fill-rule="evenodd" clip-rule="evenodd" d="M180.478 217.172c-.366.172-.745.327-1.136.468a19.53 19.53 0 01-2.751.819c-4.102.902-8.11.318-12.023-1.754-.534-.306-2.114-1.582-4.74-3.829-2.626-2.247-6.106-5.302-10.441-9.167a78.742 78.742 0 01-2.692-2.463c-2.891-2.756-4.911-5.139-6.062-7.15-1.502-2.626-2.163-5.098-1.983-7.416a8.53 8.53 0 01.403-2.062c.464.319.964.686 1.497 1.1a59.638 59.638 0 016.191 5.656c.703.723 1.444 1.5 2.224 2.331.612.644 1.245 1.322 1.901 2.035.678.516 1.955 1.792 3.829 3.829 1.106 1.196 2.939 3.158 5.5 5.888 4.907 5.176 8.129 7.685 9.665 7.526a57.365 57.365 0 006.722-1.045 28.28 28.28 0 002.274-.611 22.488 22.488 0 002.062-.736 13.987 13.987 0 002.115-1.097c.107-.074.223-.144.348-.217a8.065 8.065 0 011.421 1.796c.199.365.326.764.373 1.177.036.472.036.946 0 1.418-.092.107-.187.21-.281.305a13.844 13.844 0 01-4.416 3.199z" fill="#374291"></path><path fill-rule="evenodd" clip-rule="evenodd" d="M138.964 177.318l-.8-.306a137.575 137.575 0 00-6.188-2.304c-.837-4.174-1.256-6.2-1.256-6.078a11.28 11.28 0 01.052-1.148c.089.033.187.079.306.131l3.721 2.545c0 .019.019.037.055.052a.825.825 0 00.107.135l.055.055a.372.372 0 01.052.079c.024.022.051.04.08.055 0 .015.018.043.055.08.057.058.11.12.159.186 0 .018.018.046.055.079.02.04.047.076.079.107.04.041.076.086.107.135a.302.302 0 01.055.082c.023.023.041.05.052.08l.083.079c0 .019.018.046.052.08l.055.107a.314.314 0 01.051.082c.428.479.884 1.461 1.366 2.946.438 1.328.987 2.242 1.647 2.741z" fill="#DFC8ED"></path><path fill-rule="evenodd" clip-rule="evenodd" d="M176.585 207.361c.432-.013.869-.04 1.311-.083a9.61 9.61 0 012.139.214 7.006 7.006 0 013.346 1.794 5.403 5.403 0 00-.348.217c-.672.425-1.38.792-2.115 1.097-.629.262-1.317.508-2.062.736-.707.204-1.465.408-2.274.611-2.218.481-4.463.83-6.722 1.045-1.532.153-4.757-2.358-9.674-7.532a676.01 676.01 0 01-5.5-5.888c-1.872-2.037-3.149-3.313-3.829-3.829a228.75 228.75 0 00-1.901-2.035 159.039 159.039 0 00-2.224-2.331 59.693 59.693 0 00-6.185-5.647 46.626 46.626 0 00-1.497-1.1 6.168 6.168 0 012.114-3.184 8.856 8.856 0 015.006.642 19.625 19.625 0 018.329 6.988c1.711 2.569 3.666 5.29 5.864 8.164a37.125 37.125 0 007.602 7.471 14.02 14.02 0 008.62 2.65z" fill="#374291"></path><path fill-rule="evenodd" clip-rule="evenodd" d="M131.976 174.693c-9.87-3.481-16.331-4.445-19.385-2.891a32.93 32.93 0 003.16-2.114 3.906 3.906 0 001.579-1.339c.553-.803.966-1.402 1.223-1.793 1.002-1.339 2.163-1.644 3.483-.917 3.82.552 6.389 1.034 7.709 1.445.347.11.686.236 1.018.376-.037.382-.054.766-.052 1.149.006-.12.428 1.908 1.265 6.084z" fill="#DFC8ED"></path><path fill-rule="evenodd" clip-rule="evenodd" d="M149.219 143.449a9.981 9.981 0 01-5.839 4.122c-.611.18-1.241.367-1.834.562a39.8 39.8 0 01-6.111 1.073l-6.615.159a289.13 289.13 0 00-3.132-.456 329.347 329.347 0 00-3.802-.696 12.116 12.116 0 013.056-3.936 12.771 12.771 0 016.111-2.863c1.431-.18 2.88-.171 4.309.027 1.566.203 3.115.525 4.632.963 2.127.591 3.662.966 4.605 1.124 1.532.252 3.097.225 4.62-.079zm-28.808 11.288a12.846 12.846 0 01.305-3.188c5.859 1.52 10.85 2.092 14.973 1.715 4.123-.377 6.434-.609 6.933-.697a.19.19 0 01-.052.134 8.739 8.739 0 01-.134 3.227.608.608 0 00-.028.092l-.305.055-1.473.189a55.902 55.902 0 01-7.847.67c-1.63 0-5.155-.617-10.576-1.849a54.67 54.67 0 00-1.796-.348z" fill="#472E2E"></path><path fill-rule="evenodd" clip-rule="evenodd" d="M146.087 150.972a9.519 9.519 0 00-.59.186 5.923 5.923 0 00-2.89 1.394c-.497.071-2.808.303-6.934.696-4.125.394-9.116-.178-14.972-1.714l1.179-3.321c1.223.218 2.49.45 3.801.696 1.035.145 2.079.297 3.133.456l6.621-.159a39.8 39.8 0 006.111-1.073 85.52 85.52 0 011.834-.562 9.983 9.983 0 005.836-4.122c.269.018.422.196.455.535.037.535.064 1.089.083 1.659a9.02 9.02 0 01-.162 2.169 3.547 3.547 0 01-2.222 2.732c-.424.159-.855.303-1.283.428zm-23.614 10.2a11.007 11.007 0 01-2.035-5.754 9.02 9.02 0 00-.027-.697c.552.106 1.149.23 1.793.373 5.427 1.222 8.952 1.838 10.576 1.849a55.955 55.955 0 007.85-.679l1.445-.214.306-.055a8.421 8.421 0 01-3.802 5.329c-.091-.143-.223-.803-.403-1.98-.122-.814-.461-1.252-1.018-1.314h-.024a2.878 2.878 0 00-1.073.428 8.826 8.826 0 00-2.169 2.197c-1.124 1.534-2.245 2.32-3.361 2.356a28.004 28.004 0 01-4.419.187 5.66 5.66 0 01-1.833-.44 4.003 4.003 0 01-1.806-1.586z" fill="#472E2E"></path><path fill-rule="evenodd" clip-rule="evenodd" d="M137.146 158.04h.025c.556.067.895.505 1.017 1.314.18 1.176.306 1.833.404 1.98a8.433 8.433 0 003.801-5.329.697.697 0 01.027-.092 8.739 8.739 0 00.135-3.227.19.19 0 00.052-.134 5.92 5.92 0 012.89-1.394c.199-.07.394-.131.59-.186a45.467 45.467 0 01-.306 3.508 33.337 33.337 0 01-1.179 5.784 190.392 190.392 0 01-2.622 7.658c-.91 2.483-1.978 3.792-3.202 3.926-.642-.269-1.106-1.063-1.393-2.383a9.167 9.167 0 01.134-4.205c-1.037.108-1.554-1.043-1.552-3.453 0-1.597.388-2.851 1.164-3.761l.015-.006z" fill="#FFC3C2"></path><path fill-rule="evenodd" clip-rule="evenodd" d="M109.059 173.944c-3.871 5.551-4.647 12.656-2.329 21.313a105.44 105.44 0 013.533 27.443c-.787-.34-2.179-.599-4.177-.776-1.856-.141-3.221-.506-4.095-1.097-1.984-1.019-3.225-2.812-3.722-5.381a14.587 14.587 0 01.428-6.854c.373-2.713.774-6.926 1.204-12.638.407-5.588.815-9.81 1.222-12.666.611-3.055 2.575-5.741 5.892-8.057.47-.324 1.152-.753 2.044-1.287z" fill="#28337D"></path><path fill-rule="evenodd" clip-rule="evenodd" d="M130.289 246.345l-.455.024-1.39.107c.407-3.104.815-6.317 1.222-9.637 1.175-9.497 1.764-15.37 1.766-17.619 0-2.037-.463-5.392-1.39-10.065-.927-4.674-1.401-8.065-1.421-10.176 0-5.282 1.338-9.967 4.015-14.056 2.304-3.534 5.017-5.828 8.14-6.881.269.107.544.232.831.373.466.241.949.445 1.446.611.177.018 1.346.629 3.508 1.833.739.408 1.319 1.18 1.738 2.316a19.438 19.438 0 00-2.139-1.112 8.861 8.861 0 00-5.005-.641 6.165 6.165 0 00-2.114 3.183 8.597 8.597 0 00-.404 2.063c-.173 2.343.491 4.822 1.993 7.437 1.151 2.011 3.171 4.394 6.062 7.151-1.901 7.013-2.904 13.145-3.01 18.395-.005 1.65.129 3.298.401 4.925a21.998 21.998 0 002.328 7.309 6.395 6.395 0 01-.856 4.312c-3.713 6.087-8.297 9.424-13.75 10.013-.306.019-.611.043-.966.08l-.55.055z" fill="#4A5BAF"></path><path fill-rule="evenodd" clip-rule="evenodd" d="M112.591 171.802c3.056-1.552 9.517-.589 19.385 2.891 1.929.664 3.992 1.432 6.188 2.304l.8.305c.645.233 1.25.474 1.834.725-3.123 1.051-5.837 3.344-8.141 6.881-2.676 4.086-4.015 8.772-4.015 14.056 0 2.124.474 5.516 1.421 10.175.948 4.659 1.407 8.016 1.378 10.071 0 2.241-.588 8.114-1.766 17.619a1179.53 1179.53 0 01-1.222 9.638 53.137 53.137 0 01-11-.535 46.753 46.753 0 01-7.78-1.971c-.892-.269-1.49-.93-1.794-1.983a9.648 9.648 0 01-.241-2.839c0-1.784.483-4.515 1.448-8.192.893-3.532 1.285-6.282 1.177-8.25a105.44 105.44 0 00-3.533-27.443c-2.322-8.655-1.546-15.76 2.329-21.313a73.641 73.641 0 012.408-1.445l.589-.376c.196-.104.376-.211.535-.318z" fill="#4A5BAF"></path><path fill-rule="evenodd" clip-rule="evenodd" d="M363.037 185.076a.977.977 0 01.341.182.97.97 0 01.246.298l2.292 3.734c.107.176.163.378.162.583a.785.785 0 01-.162.483l-2.292 2.982a1.006 1.006 0 01-.587.269 1.389 1.389 0 01-.693-.321 1.011 1.011 0 01-.373-.638.803.803 0 01.162-.642l1.971-2.505-1.971-3.145a1.154 1.154 0 01-.162-.745.679.679 0 01.373-.535.785.785 0 01.693 0z" fill="#fff"></path><path fill-rule="evenodd" clip-rule="evenodd" d="M345.596 240.493c-.431.066-.857.156-1.277.269-2.097.611-3.145 2.459-3.145 5.543v22.917c0 4.657 2.309 7.407 6.927 8.25l22.496 3.945a9.958 9.958 0 003.199.107l7.248-1.28c2.168-.674 3.251-2.61 3.251-5.806v-22.917c0-4.62-2.291-7.321-6.875-8.104l-22.495-3.945a9.269 9.269 0 00-3.09-.106h-.214l-6.025 1.127z" fill="#EFF0FF"></path><path fill-rule="evenodd" clip-rule="evenodd" d="M373.796 281.546c-1.065.136-2.145.1-3.199-.107l-22.489-3.951c-4.621-.854-6.93-3.604-6.928-8.251V246.32c0-3.092 1.048-4.94 3.145-5.543.42-.113.847-.202 1.277-.269a9.124 9.124 0 012.506.162l22.495 3.945c4.551.815 6.825 3.515 6.823 8.101v22.917c0 1.951-.391 3.444-1.173 4.476a4.504 4.504 0 01-2.457 1.437z" fill="#4A5BAF"></path><path fill-rule="evenodd" clip-rule="evenodd" d="M373.796 281.546a4.504 4.504 0 002.445-1.44c.782-1.03 1.173-2.523 1.173-4.476v-22.917c0-4.584-2.274-7.284-6.823-8.101l-22.483-3.957a9.085 9.085 0 00-2.506-.162l6.019-1.115h.214a9.243 9.243 0 013.09.107l22.495 3.945c4.584.782 6.875 3.483 6.875 8.103v22.917c0 3.197-1.083 5.132-3.251 5.806l-7.248 1.29z" fill="#28337D"></path><path fill-rule="evenodd" clip-rule="evenodd" d="M373.518 261.656a.974.974 0 01.587.48l2.292 3.731c.107.177.163.38.162.587a.776.776 0 01-.162.479l-2.292 2.986a.982.982 0 01-.587.266 1.344 1.344 0 01-.69-.306 1.007 1.007 0 01-.376-.642.794.794 0 01.162-.638l1.971-2.506-1.971-3.144a1.155 1.155 0 01-.162-.746.663.663 0 01.376-.534.775.775 0 01.69-.013z" fill="#fff"></path><path d="M358.915 257.051c-.024 0-.046 0-.052.019a3.74 3.74 0 01-1.295 1.332.209.209 0 01-.162.058.205.205 0 01-.071-.027c-.427-.288-.861-.563-1.289-.853-.043-.027-.07-.095-.144-.199l.336.062.899.152.611.11a.298.298 0 00.215-.028.301.301 0 00.142-.164c-.174-.055-.611-.141-1.051-.22a10.756 10.756 0 00-1.528-.199c.038.264.123.518.251.752.21.408.488.777.822 1.091.358.348.724.675 1.085 1.017.094.092.174.202.263.306l-.022.052-.253-.043-.437-.076-.44-.08c-.165-.03-.272.043-.37.214l.305.049.657.116.657.116c.083.019.196.043.239.107.164.234.249.515.241.801l-2.793-.486c-.04.089-.067.162-.113.275l2.955.513a9.032 9.032 0 01-.199.486.345.345 0 01-.434.214h-.055a44.133 44.133 0 00-.828-.153l-1.106-.189-.266-.046c.049.214.144.306.306.33l.48.079.959.172.275.048c0 .031 0 .062.025.095a4.227 4.227 0 01-1.742.474 7.246 7.246 0 01-1.901-.04c-.177.611-.342 1.222-.516 1.833l.217.046a.362.362 0 00.104 0c.675-.033 1.359-.046 2.026-.128a6.138 6.138 0 002.404-.77 2.815 2.815 0 001.171-1.222c.225-.466.311-.987.25-1.501a3.057 3.057 0 00-.632-1.552 6.102 6.102 0 00-1.223-1.179c-.048-.04-.094-.089-.152-.144.269-.22.525-.416.767-.633a1.148 1.148 0 00.394-.999M359.859 251.661a.506.506 0 00-.11 0 8.373 8.373 0 00-1.974.248 4.885 4.885 0 00-2.542 1.396 3.18 3.18 0 00-.724 2.796 2.8 2.8 0 00.48 1.189c0-.028.027-.043.024-.055-.003-.012 0-.119-.027-.18a2.527 2.527 0 01.007-1.064c.077-.351.228-.681.442-.968.259-.318.579-.581.941-.773a4.934 4.934 0 012.185-.575c.33 0 .672 0 1.026.018.172-.644.346-1.298.526-1.967-.095-.019-.177-.04-.254-.052" fill="#fff"></path><path d="M357.464 254.479l-.254.088.468.578v.061l-.251-.043-.611-.107-.306-.055a.305.305 0 00-.366.217l1.445.251c.516.091.516.091.819.644a.88.88 0 01.073.135c.023.074.041.15.055.226l-.336-.058-2.42-.422c-.192-.033-.192-.027-.223.232l3.098.538a.813.813 0 000-.742 8.049 8.049 0 00-1.152-1.528M343.484 257.69l-.027.049a6478.88 6478.88 0 0115.394 13.417l.028-.052-15.395-13.405M355.808 246.711l-.028.052 12.861 11.199.031-.052-12.864-11.199zM358.918 258.405l-.027.052 12.32 10.728.031-.048c-4.107-3.58-8.215-7.157-12.324-10.732zM358.497 254.298l-.034.049 12.085 10.524.028-.052-12.079-10.521zM359.233 257.932l-.034.045c4.013 3.49 8.02 6.98 12.021 10.469l.031-.052-12.018-10.462zM359.413 257.33l-.03.048c3.98 3.482 7.963 6.954 11.947 10.417l.034-.052-11.951-10.413zM358.478 255.029l-.027.049 11.77 10.251.028-.055-11.771-10.245zM359.367 254.305l-.021.061 11.541 10.044.028-.052-11.548-10.053zM359.285 256.489l-.028.049 11.438 9.955.027-.052-3.816-3.321-3.823-3.331c-1.268-1.1-2.53-2.209-3.798-3.3zM356.278 259.346c-.122.098-.238.174-.342.272a4.463 4.463 0 00-.883 1.021 1.98 1.98 0 00.101 1.919c.079.119.113.174.177.183a.558.558 0 00.214-.033c-.077-.132-.144-.233-.202-.34a1.549 1.549 0 01-.214-1.103c.078-.349.257-.667.514-.916.269-.275.556-.529.849-.81l-.214-.199M359.587 259.737l-.027.052 11.217 9.778.031-.055-11.221-9.778M343.845 253.513l-.031.049c3.498 3.056 6.997 6.102 10.496 9.139l.031-.049-10.496-9.139zM344.135 253.018l-.03.052 10.373 9.029.031-.048-10.389-9.033M360.235 261.048l-.027.052 10.23 8.91.031-.048-10.234-8.914zM360.354 261.901l-.03.052 9.983 8.69.03-.052-9.983-8.69zM343.723 254.155l-.028.052c3.294 2.872 6.59 5.742 9.888 8.61l.037-.042-9.897-8.62zM344.548 252.627c.305.394 9.68 8.525 9.885 8.608l-9.885-8.608zM343.625 254.818l-.031.052 9.821 8.556.028-.052-9.818-8.556zM343.338 258.323l-.031.055 9.689 8.43.025-.055-9.683-8.43zM360.33 262.619l-.028.049 9.448 8.229.034-.049-9.454-8.229zM344.025 255.915l-.027.03c.055.055.11.116.165.165l9.047 7.878h.049v-.04l-9.237-8.042M360.144 263.212l-.031.052c3.08 2.676 6.157 5.355 9.231 8.036l.031-.052-3.084-2.683c-1.029-.898-2.056-1.8-3.089-2.692-1.033-.892-2.035-1.778-3.055-2.661M359.869 263.722l-.028.052c3.056 2.671 6.12 5.339 9.194 8.006l.022-.055-9.188-8.003zM345.437 252.654l-.028.052 9.094 7.918.03-.049-9.096-7.921zM343.891 257.296l-.031.052 9.033 7.862.027-.052-9.029-7.862zM346.818 251.6l-.028.052 8.749 7.618.027-.055-8.748-7.615zM359.474 264.205l8.706 7.581c-1.164-1.158-8.495-7.502-8.706-7.581zM346.668 252.23l-.027.052 8.473 7.376.027-.052-8.473-7.376zM344.615 257.18l-.028.049 8.458 7.367.031-.049-8.461-7.367zM346.436 252.774l-.031.052 8.37 7.287.027-.052-8.366-7.287zM360.614 252.395l-.03.052 8.335 7.254.028-.049-8.333-7.257zM360.412 252.969l-.03.049 7.911 6.891.403.339h.022v-.034l-8.318-7.242M360.746 251.762l-.031.049 8.204 7.144.031-.052-8.204-7.141zM360.202 253.611l8.1 7.052c-.376-.449-7.89-6.967-8.1-7.052zM343.218 258.958l-.03.055c2.689 2.335 5.374 4.671 8.054 7.01l.034-.049a2934.245 2934.245 0 01-8.058-7.028M359.108 264.547l-.028.052 7.945 6.921.037-.046-7.945-6.927M360.089 254.185c.241.324 7.611 6.723 7.825 6.811l-7.825-6.811zM342.836 259.374c.66.718 7.575 6.692 7.771 6.765l-7.771-6.765zM347.026 251.047l-.031.046 7.609 6.625.027-.049c-2.53-2.213-5.065-4.42-7.605-6.622zM342.58 261.397l-.028.048 7.456 6.494.028-.052-7.456-6.49zM342.855 260.138c.455.522 7.067 6.248 7.3 6.355l-7.3-6.355zM342.733 260.782l-.025.04a.958.958 0 00.076.08l7.028 6.111h.049v-.031l-7.144-6.218M347.224 250.47l-.027.052 6.783 5.903.028-.052-6.784-5.903zM343.261 262.735l-.027.055 6.673 5.806.028-.052-6.674-5.806M358.561 264.904c2.261 1.971 4.473 3.899 6.692 5.828-.395-.465-6.451-5.708-6.692-5.828zM347.411 249.962c2.169 1.883 4.308 3.75 6.447 5.611-.629-.685-6.227-5.522-6.447-5.611zM347.765 249.443l-.027.052 6.151 5.356.03-.052-6.154-5.356zM348.135 249.018l-.028.049 5.895 5.134.03-.052-5.897-5.131zM342.852 263.132l-.028.046 5.806 5.048.027-.052c-1.931-1.681-3.859-3.361-5.805-5.042zM356.572 246.711l5.698 4.966c-.663-.718-5.5-4.889-5.698-4.966zM342.717 263.759l-.039.045 5.335 4.639.027-.049-5.323-4.635zM353.589 265.742c.44.507 4.981 4.43 5.219 4.543l-5.219-4.543zM363.175 252.379l-.028.055 5.195 4.514.027-.052-5.194-4.517zM363.569 251.976l-.028.049 5.082 4.428.031-.052-5.085-4.425zM354.576 268.846l-.021.058 4.962 4.321.031-.049-4.972-4.33zM354.705 269.708l-.031.052c1.63 1.426 3.259 2.845 4.889 4.256l.034-.045-4.889-4.278M354.463 268l-.03.049 4.69 4.085.027-.055-4.687-4.079zM355.276 247.017l-.028.049 4.584 3.972.027-.052-4.583-3.972M349.803 249.718l-.033.049 4.464 3.884.024-.049-4.455-3.884zM354.83 270.545l-.028.049 4.306 3.768.024-.055-4.302-3.762zM354.497 265.781l-.031.052 4.312 3.753.027-.052-4.308-3.753zM350.359 249.461l-.021.055 4.186 3.633.031-.055a1140.293 1140.293 0 00-4.183-3.639M364.162 251.741l-.031.052 4.156 3.618.03-.052-4.155-3.618zM358.072 265.155l-.031.049 4.092 3.56.027-.052-4.088-3.557zM354.973 247.487l-.027.049 4.046 3.523.03-.048-4.049-3.524zM351.019 249.284l-.03.049 3.881 3.361.03-.049-3.881-3.376M357.464 265.375c.244.327 3.541 3.175 3.743 3.257l-3.743-3.257zM344.101 265.714l-.027.052 3.599 3.135.031-.049-3.603-3.138zM355.316 265.748l-.028.052 3.539 3.08.021-.055a1379.772 1379.772 0 01-3.532-3.077zM354.674 271.175l-.028.055 3.475 3.025.024-.058-3.471-3.022zM354.848 248.123l-.027.055 3.422 2.976.031-.049a1588.04 1588.04 0 01-3.426-2.982zM354.219 248.325l-.031.049 3.361 2.927.028-.055c-1.123-.972-2.243-1.946-3.361-2.921M353.748 248.664l-.021.058 3.171 2.75.028-.052-3.178-2.765M356.795 265.54l-.028.049 3.056 2.646.03-.049-3.055-2.646M356.107 265.69l-.03.049 2.976 2.588.027-.052-2.973-2.585zM353.565 249.25l-.028.052 2.772 2.414.027-.052-2.771-2.414zM344.746 267.025c.756.763 1.567 1.47 2.426 2.115l-2.426-2.115zM354.484 271.767l-.027.049 2.426 2.115.031-.049-2.445-2.115M359.749 248.649l-.033.048 2.444 2.112.031-.049-2.426-2.111M353.403 249.862a21.274 21.274 0 002.426 2.111 616.214 616.214 0 00-2.426-2.111zM353.033 250.286l-.024.052c.751.66 1.506 1.323 2.27 1.974l.024-.049-2.27-1.977zM368.647 261.635l-.033.046 1.635 1.424.027-.046-1.629-1.424zM354.271 272.333l-.025.043 1.556 1.356.027-.055c-.523-.446-1.033-.916-1.558-1.344zM357.965 247.096l-.028.052c.306.278.639.553.957.834l.027-.052-.956-.834zM365.243 251.936l-.033.049c.305.254.593.508.886.764l.024-.046-.877-.767zM354.194 273.011l-.024.046.736.639.022-.052-.734-.633zM366.768 253.269l-.027.046.651.565.03-.046-.654-.565zM344.954 267.957l-.024.046c.18.162.363.306.547.477l.027-.046-.55-.477zM360.825 248.85l-.031.046.389.334.025-.046-.383-.334zM344.089 266.457l-.024.043.352.306.027-.052-.355-.306M366.111 271.407v.055l.184.159.018-.04-.199-.174M369.466 261.62l-.021.03.171.153v-.024l-.165-.159" fill="#fff"></path><path fill-rule="evenodd" clip-rule="evenodd" d="M392.64 168.261c-.431.064-.859.152-1.28.266-2.096.611-3.144 2.459-3.144 5.546v22.917c0 4.655 2.31 7.405 6.93 8.25l22.496 3.945c1.053.206 2.132.242 3.196.107l7.251-1.281c2.165-.674 3.249-2.609 3.251-5.805v-22.918c0-4.62-2.292-7.32-6.875-8.1l-22.496-3.923a9.202 9.202 0 00-3.092-.107h-.214l-6.023 1.103z" fill="#EFF0FF"></path><path fill-rule="evenodd" clip-rule="evenodd" d="M420.832 209.307a10.024 10.024 0 01-3.196-.107l-22.496-3.945c-4.62-.853-6.93-3.603-6.93-8.25v-22.917c0-3.092 1.048-4.941 3.144-5.546.421-.113.849-.202 1.28-.266a9.084 9.084 0 012.506.159l22.496 3.945c4.546.815 6.821 3.516 6.823 8.103v22.918c0 1.955-.391 3.447-1.174 4.476a4.511 4.511 0 01-2.453 1.43z" fill="#FF7133"></path><path fill-rule="evenodd" clip-rule="evenodd" d="M420.832 209.307a4.51 4.51 0 002.444-1.442c.78-1.029 1.172-2.521 1.174-4.477v-22.917c0-4.583-2.275-7.284-6.824-8.103l-22.495-3.945a9.046 9.046 0 00-2.506-.159l6.023-1.118h.214a9.202 9.202 0 013.092.106l22.496 3.945c4.583.778 6.875 3.479 6.875 8.101v22.917c0 3.2-1.084 5.136-3.251 5.806l-7.242 1.286z" fill="#F45540"></path><path d="M395.008 188.382l-5.94-1.195c0 .141.022.275.034.407v.027c.021.089.043.177.061.26v.031l.055.189v.037c.04.113.079.223.116.336v.027l.238.575.04.076.022.031c.03.064.061.131.094.195l.019.025c.146.229.287.464.433.699l.159.23.385.495.022.03.061.058.055.08.388.421.018.016.153.159h.024l.612.611h.018l.202.177h.03l.064.067c.037.031.074.064.113.092l.23.186.061.046.033.037.257.198.055.04.089.058.024.028.092.064.027.018.663.468.031.018.119.079.089-.039h.049c.042 0 .079-.025.122-.037h.024c.474-.098.947-.202 1.427-.284.281-.052.575-.067.899-.104a9.614 9.614 0 01-1.816-4.962M418.622 193.103l-.171-.027-5.259-1.061a1.443 1.443 0 01-.158-.036h-.147c0 .168-.025.33-.037.489v.073c-.049.305-.101.611-.149.901v.071a6.113 6.113 0 01-1.495 2.774c.266.141.52.263.77.406l1.302.761a.47.47 0 01.073.068h.028a.67.67 0 00.324.183.808.808 0 00.452-.067c.235-.089.483-.153.724-.233h.025l.259-.11.065-.027.11-.043.223-.092h.018l.577-.305.083-.049.052-.024.03-.019.08-.055.611-.424h.018l.263-.224c.198-.191.384-.396.556-.611.205-.284.373-.611.556-.916.019-.031.04-.058.058-.086v-.027c.055-.165.107-.327.159-.492v-.031c.019-.067.037-.131.052-.199v-.1c0-.089.028-.181.04-.272.012-.092 0-.098 0-.156l-.128-.046M394.034 182.146l-.141-.022-.199.058h-.076l-.095.037h-.027l-.257.082-.226.083h-.024l-.089.04h-.052c-.321.143-.645.284-.969.421l-.189.11-.886.581-.507.443-.052.055-.275.306-.04.027-.122.189h-.016c-.18.346-.357.691-.537 1.033-.019.055-.037.11-.058.159v.067c-.016.055-.031.11-.043.165-.019.168-.037.333-.052.502a.109.109 0 000 .036.135.135 0 00.046.107.21.21 0 00.076.031.2.2 0 01.049 0c1.791.354 3.582.713 5.375 1.075l.373.074a6.49 6.49 0 011.17-3.643.839.839 0 00.079-.14l-1.39-1.418h-.037a62.534 62.534 0 00-.785-.516M413.614 186.097a.911.911 0 00-.525.076c-.1.025-.203.039-.306.043l-.058.024-1.32.834c.034.043.076.083.107.129a9.425 9.425 0 011.332 3.743c.004.035.011.07.022.104 0 .104.033.204.039.305a.16.16 0 00.028.104c.016.02.039.033.064.037h.101l5.644 1.137v-.071c-.043-.214-.08-.431-.123-.648v-.061c-.036-.137-.079-.278-.119-.412a17.455 17.455 0 00-.171-.419v-.033l-.052-.12c-.018-.042-.043-.085-.061-.125a1.105 1.105 0 01-.052-.11l-.11-.202v-.027l-.272-.443-.021-.031-.508-.696-.024-.034-.306-.385-.082-.086a3.626 3.626 0 01-.15-.168l-.027-.033-.721-.669-.037-.037-.055-.052-.202-.186-.55-.459-.327-.266-.137-.097-.144-.101-.037-.028-.201-.156h-.022l-.122-.088-.082-.052a.87.87 0 00-.425-.235" fill="#fff"></path><path d="M412.508 191.875c-.055 0-.113 0-.168-.028l-3.425-.687-.942-.193h-.073c.023 1.345.047 2.686.073 4.025.41.149.822.281 1.223.446.504.198 1.002.424 1.506.626h.018a.207.207 0 00.172-.061 5.65 5.65 0 001.405-2.445c.04-.131.074-.265.11-.4 0-.088.034-.177.049-.266v-.131-.107-.128-.141c0-.046 0-.067.021-.101.022-.033 0-.116 0-.174 0-.058-.024-.144-.039-.217M412.737 181.626l-.654.391-.143.095-.162.089-.086.058-1.158.696-.147.092-.916.556-.086.049-.119.073-.073.031-.459.281-.305.193h-.052c-.272.177-.544.357-.822.525l-1.864 1.109-.611.34c-.187.122-.373.244-.562.36l-.706.428-1.363-1.339c-.19-.189-.376-.378-.565-.565l-1.18-1.133c-.489-.471-.975-.948-1.461-1.421a.983.983 0 01-.061-.083h-.03l-.306-.305c-.192-.184-.382-.373-.571-.56l-.095-.097-.956-.917-.064-.061-1.076-1.051-.089-.092-.461-.446-.061-.058-.232-.232-.144-.138-.498-.467c0 .229.021.434 0 .629a.546.546 0 00.244.553c.101.08.194.169.278.266l.147.156a.885.885 0 01.089.073c.217.232.431.477.654.697.305.305.611.559.916.837l.233.229.116.11.033.034.871.859.327.305 1.635 1.595c.104.104.205.211.305.306l.642.611 1.833 1.8c.26.253.52.501.774.76l.027.025c.02.019.044.032.07.04a.15.15 0 00.092-.025c.849-.51 1.705-1.014 2.558-1.528l.644-.36c.119-.08.236-.162.355-.236l1.592-.95h.039l.334-.195.763-.477.117-.058.137-.073.174-.11c.306-.184.611-.373.917-.55.306-.178.681-.385 1.014-.587.086-.049.208-.107.214-.199.025-.287 0-.589 0-.916" fill="#fff"></path><path d="M394.507 174.937v.474l.043.086c.217.198.437.388.651.589.394.376.782.764 1.17 1.143l1.684 1.659.119.11 1.073 1.048.091.095.232.22c.028.031.058.061.086.095l.917.917.055.058c.156.149.305.305.464.449l.113.116c.257.244.514.486.767.733.575.559 1.149 1.125 1.724 1.681a.14.14 0 00.064.033.114.114 0 00.085 0l2.298-1.372c.052-.029.105-.056.159-.079l.434-.269c.107-.067.214-.137.324-.202.406-.244.816-.482 1.222-.724l.174-.104.061-.042.08-.04.165-.098.119-.079.562-.34.089-.045.217-.138c.055-.03.107-.064.162-.101.266-.159.528-.324.794-.479.333-.199.669-.392 1.002-.587l.187-.125c.172-.128.358-.238.553-.327.257-.092.287-.306.235-.645a.699.699 0 01-.113.064c-.131.064-.272.11-.4.183-.232.141-.452.306-.685.437-.146.089-.305.144-.458.233-.153.088-.199.186-.306.256a7.618 7.618 0 00-.76.449c-.12.083-.245.155-.376.217-.254.153-.498.306-.752.459-.254.153-.611.339-.917.513-.22.135-.43.284-.65.419-.269.168-.541.33-.816.489l-.584.336-.11.07-1.396.843-.447.266-.027-1.69v-.253l-.083-4.691v-.204l-.323-.067.088 5.011.034 1.833-1.907-1.864c-.791-.779-1.592-1.546-2.389-2.325-.798-.779-1.58-1.552-2.381-2.316-.8-.764-1.592-1.562-2.417-2.368" fill="#fff"></path><path d="M394.553 175.973c0 .144-.024.278-.027.419a.24.24 0 00.073.119c.278.272.562.535.84.804l1.556 1.528.091.091.507.489a123.49 123.49 0 011.904 1.87l.306.306.171.152.33.306c1.036 1.015 2.081 2.014 3.101 3.056.096.107.214.194.346.253h.045a.46.46 0 00.343-.091c.98-.642 1.998-1.223 3-1.812a.232.232 0 01.077-.025c.119-.079.241-.156.363-.232a.93.93 0 01.113-.076l.257-.141.483-.306 1.748-1.048.088-.052.611-.363.089-.061.59-.352.088-.052.917-.544.079-.052c.175-.113.049-.351.092-.559-.143.095-.272.123-.391.205-.422.306-.874.541-1.314.807a.92.92 0 01-.085.052l-.874.522a1.153 1.153 0 01-.12.064l-.953.575-.177.107c-.196.122-.394.241-.593.36l-1.329.783-.162.091c-.251.159-.501.306-.755.471l-2.194 1.314-2.172-2.118-.828-.825c-.058-.049-.117-.098-.175-.153l-1.475-1.439-1.788-1.754-.095-.094-.574-.56-.15-.143-1.977-1.892z" fill="#fff"></path><path d="M412.74 180.593l-.916.514-.062.039a1.135 1.135 0 01-.1.071l-2.118 1.268-1.112.654-.376.208-.162.097-.376.229c-.214.138-.422.279-.635.407l-1.556.917-1.115.647c-.125.083-.248.168-.379.242a.077.077 0 01-.052 0 .096.096 0 01-.049-.025c-.137-.128-.272-.269-.406-.406-.187-.177-.373-.348-.559-.532a893.103 893.103 0 01-2.778-2.71l-.021-.028-.346-.324c-.079-.088-.162-.171-.241-.256l-.116-.104-.11-.11-.064-.061c-.501-.486-1.006-.972-1.504-1.461-.336-.324-.666-.657-.999-.987l-.055-.055-1.748-1.696a3.569 3.569 0 00-.174-.174.809.809 0 00-.07-.021h-.025a.234.234 0 00-.021.125c.016.072.029.144.037.217a.277.277 0 00.101.223l.574.535c.04.043.079.085.122.125.385.379.773.755 1.158 1.137l.092.079c.027.028.055.058.086.086l1.949 1.907c.061.061.122.125.18.189l.404.394.345.306 2.915 2.854c.043.044.084.091.122.14l.556.529c.193.183.382.36.566.547a.276.276 0 00.091.061c.015.002.03.001.044-.003a.116.116 0 00.039-.022c.18-.116.367-.216.55-.323l.58-.306c.165-.11.324-.229.495-.33.648-.397 1.299-.785 1.953-1.176.165-.098.333-.184.501-.278.113-.071.226-.141.336-.214.11-.074.229-.132.342-.202l.221-.138.394-.232.076-.046.822-.492.122-.076c.074-.046.15-.089.226-.131l.052-.037c.141-.086.284-.171.428-.251a.628.628 0 01.089-.064l.504-.305.089-.052c.033-.022.064-.049.1-.071l.899-.54c.03-.019.07-.046.073-.08v-.449M402.116 194.295v-.245.245zm0-.556v-.419.419zm-.07-3.789v-.382.382zm-8.41-9.684l.712.138a.66.66 0 01.352.199c.843.834 1.693 1.665 2.539 2.493 1.526 1.497 3.054 2.992 4.583 4.486a.475.475 0 01.175.403c0 .29 0 .587.018.883v1.085l.046 2.78V194.292c0 .941.027 1.885.043 2.829l.018.941-2.008-.403v-.18l-.171-9.714a.35.35 0 00-.11-.275l-2.2-2.228-4.278-4.345c-.275-.281-.547-.556-.852-.861h.134l.95.192.049.018zm-.415-.323l-1.204-.239h-.128c.22.223.415.41.611.611.272.278.531.566.8.841s.559.556.838.834c.217.222.431.445.641.669h.037l1.39 1.418.306.348a.691.691 0 01.128.07c.886.901 1.773 1.8 2.662 2.699.137.14.268.305.403.437.027.048.079.103.079.146v1.546c.025 1.333.047 2.665.068 3.997v.446l.045 2.103v.061c0 .152 0 .305.025.452l-.018.192v.068l.021 1.179 2.371.477-.021-1.079c0-.712-.031-1.427-.043-2.139 0-.366 0-.73-.015-1.094v-.412c0-.446-.022-.892-.031-1.336 0-.354 0-.708-.021-1.063-.022-.354 0-.709-.016-1.063v-.306-.473c0-.514-.018-1.027-.036-1.544a1.019 1.019 0 00-.074-.241l-1.564-1.528-1.363-1.344-.718-.709-.739-.73-.306-.306c-.092-.083-.189-.168-.278-.257l-.972-.968-.15-.132-1.286-1.253a.529.529 0 00-.238-.137 88.762 88.762 0 00-1.204-.248M407.723 199.297l-.061-.08.061.08zm-1.898-.734v-.027h.019v.064l-.022-.043.003.006zm-.229-8.94l.034-.016.024.052-.027.022s0-.028-.031-.058zm8.587-5.467l-1.159-.226a1.04 1.04 0 00-.305.018c-.04.031-.086.058-.128.086-.224.14-.453.278-.679.415l-.305.196h-.019a.24.24 0 01-.064.021.336.336 0 01-.067.037v.034l-1.204.715h-.028a8.73 8.73 0 01-.305.189l-.788.459c-.245.146-.489.305-.737.446-.44.275-.883.55-1.329.819-.501.305-1.005.611-1.503.916a.257.257 0 00-.077.196c0 .513 0 1.03.018 1.528v.036l.031-.067c.021-.037.046-.07.07-.107.018.044.028.09.031.138 0 .064-.04.088-.132.104v.07l.138.052v.058h-.138v.174l.028.11.082.018-.079.086.061 3.337.043.036-.046.034v.174c.047.098.085.201.113.306a.673.673 0 010 .11v.18c-.04-.052-.076-.092-.11-.138l.052 3.013c-.001.06-.007.119-.018.178v.073l.018 1.008.208.04v-.153h.043v.156l.287.058-.018-.168h.058l.018.174h.089c0-.079.039-.082.085-.073h.031a.151.151 0 01.14-.046.245.245 0 01.144.104l.403.082c.034-.018.07-.049.104-.045l.165.027.214.046.061.079h.058v-.027c0-.025.028-.034.04-.031.018 0 .04.031.058.068v.015l.101.036v.028h-.272l.305.064v-.489l-.082.156-.061.058-1.95-.385a.284.284 0 01-.058-.034v-.25l-.177-9.836a.305.305 0 01.162-.306c.306-.174.611-.339.895-.513l1.302-.776 1.372-.841c.489-.297.98-.591 1.473-.883.638-.379 1.277-.751 1.906-1.142a.363.363 0 01.306-.046l.59.119 1.222.241c-.18.123-.321.223-.467.306-.508.324-1.018.645-1.528.962l-1.333.838c-.516.333-1.029.672-1.549 1.002-.519.33-1.121.703-1.677 1.054-.202.125-.401.26-.611.394a.144.144 0 00-.045.047.147.147 0 00-.023.06c0 .44 0 .877.019 1.317l.018.049v-.137a.134.134 0 000-.04c0-.086-.052-.208.04-.22a.188.188 0 01.058 0v-.138c-.022-.03-.055-.064-.058-.094-.003-.031 0-.129 0-.196v-.195c0-.065.033-.046.055-.071v-.07l-.074-.031v-.03h.077v-.028-.03.021a.09.09 0 010-.04h.046l.036.031c.266-.162.535-.306.798-.483.611-.373 1.192-.758 1.79-1.136.208-.132.419-.257.63-.385.085-.065.174-.126.263-.187l1.32-.834.058-.025.568-.369.049-.028.082-.064.199-.125.544-.342.168-.107.089-.061.104-.04c.119-.089.241-.177.363-.26.18-.122.367-.238.547-.354v-.037l-.137-.028-1.161-.235M403.176 198.313c-.128-.027-.168-.095-.171-.257-.024-1.644-.058-3.287-.086-4.931-.027-1.644-.058-3.291-.091-4.935 0-.141.018-.193.143-.168.285.061.569.122.853.177l.855.168c.098.021.138.058.129.202-.009.143 0 .345.018.519 0 .776 0 1.552.028 2.328 0 .841.042 1.681.058 2.521l.058 3.172c0 .443 0 .886.024 1.329 0 .205 0 .223-.18.202h-.031l-1.063-.208-.541-.107-.003-.012zm1.837-10.071l-2.301-.462a.32.32 0 00-.058.135v.394c0 .397 0 .794.021 1.192v.366l.07 3.881v.29c.016 1.134.037 2.268.055 3.401v1.027l2.374.477v-.474-.55c0-.183-.018-.394-.021-.593 0-.917-.03-1.833-.043-2.735v-.406c-.024-1.259-.047-2.52-.067-3.783v-.446l-.03-1.714z" fill="#fff"></path><path d="M397.022 193.797a.679.679 0 00-.211 0c-.586.091-1.176.168-1.763.25h-.046l-.125.037h-.018l-.116.043v.027l.235.159.724.419.086.043.119.067.052.018.174.101.061.021.034.025h.021l.085.049.062.021.4.208.061.024.669.327.452.205.462.189a.769.769 0 01.085.028l.214.098.107.033.113.049.233.08.171.073.229.083h.03l.306.085.018-.192a.64.64 0 01-.082-.043 11.236 11.236 0 01-2.509-2.298.637.637 0 00-.364-.26M408.392 198.264h.086-.086zm.458 0h.37-.37zm.767 0h.144-.144zm.624 0l.18-.018-.18.018zm.699-1.653a.14.14 0 00-.103 0 6.543 6.543 0 01-2.139 1.253c-.214.076-.443.119-.67.18 0 .018-.015.037-.021.052v.052c0 .034.04.052.086.061h.015c.07 0 .14 0 .208.018h1.9l.181-.018a.637.637 0 01.107 0l.207-.021h.028l.684-.068h.028a.749.749 0 00.116 0H411.793l.287-.036H412.306l.058-.015.113-.022.517-.095h.027l.193-.097-.08-.037c-.724-.391-1.448-.782-2.172-1.167a.262.262 0 00-.046-.019M406.311 182.977c-.054.023-.107.05-.159.079l-2.298 1.372a.124.124 0 01-.085 0 .14.14 0 01-.064-.033c-.575-.557-1.149-1.122-1.724-1.681-.253-.248-.51-.489-.767-.733h-.366l-.055.03.828.825 2.172 2.118 2.194-1.314c.254-.153.504-.306.755-.471l-.422-.226" fill="#fff"></path><path d="M403.567 181.99v.055c-.021 0-.04.046-.064.046l-.449-.083-.113-.021-.394-.031h-.838l1.907 1.864-.034-1.833M404.414 182.271l-.511-.095.028 1.69.446-.266 1.396-.843-.522-.233-.523-.174-.305-.079M402.599 197.332l-.11-.04.11.04zm.162-3.315c-.022.021-.04.064-.065.058-.134 0-.269-.037-.403-.055 0 .363 0 .727.015 1.094 0 .709.031 1.424.043 2.139l.138.042.11.04.152.061.065.025c-.019-1.134-.04-2.268-.055-3.401M397.303 181.593l-.033.015h-.052l-.178.024h-.079l-.461.04h-.022c-.067 0-.137 0-.208.025h-.018l-.092.045.972.969c.089.089.186.174.278.257l.764-.508-.871-.858M410.164 184.141l-.764.477.825.849h.028l1.204-.715v-.034l-.394-.128-.437-.217h-.025l-.437-.217M407.741 190.573v.211l.058.088-.055.049.071 4.031.088.018c.013-.077.021-.154.025-.232l-.068-3.734c.005-.065.014-.129.028-.193v-.146l-.015-.074-.141-.03M398.81 181.574h-.428l-.119.015c.189.187.379.376.571.56l.379-.171-.403-.395M408.649 183.548c-.113.07-.229.138-.342.202l.406.305.458-.281-.021-.043h-.046l-.455-.165M412.859 191.047v.449c.068.015.104.03.141.037l5.632 1.13h.113v-.027l-5.644-1.137H413a.103.103 0 01-.064-.037.16.16 0 01-.028-.104c0-.1-.027-.201-.039-.305M408.035 198.389h-.031c-.092 0-.101.058-.095.138v.082a.177.177 0 010 .046v.483h.058l.083-.156v-.59M407.692 183.154a1.063 1.063 0 00-.113.076l.333.208.162-.098v-.033l-.094-.064-.288-.089zM407.448 199.172l-.165-.028c-.034 0-.07.028-.104.046l.168.03c.047.009.093.022.138.037.036 0 .067.077.097.119l.144.028h.272v-.028l-.101-.036-.113-.025h-.058l-.061-.079-.214-.046" fill="#fff"></path><path d="M407.347 199.221l-.168-.031v.104l.401.083c-.03-.043-.061-.107-.098-.12a1.076 1.076 0 00-.138-.036" fill="#fff"></path><path d="M407.18 199.19l-.404-.083v.108l.404.079v-.104z" fill="#fff"></path><path d="M406.776 199.108l-.285-.059v.108l.288.058v-.107M403.897 182.115v.061l.51.095c-.171-.055-.342-.104-.516-.156M406.272 198.942h-.059l.019.169h.058l-.018-.175" fill="#fff"></path><path d="M406.47 199.043c-.046 0-.089 0-.086.074l.114.024v-.098h-.031M405.935 198.891h-.042v.153h.055v-.157M410.421 198.258l-.18.018.18-.018zM402.498 197.292l.11.04-.11-.04zM389.08 186.543c0 .055 0 .107-.024.171l.119.033 5.708 1.143a.357.357 0 00.113 0l-.373-.073c-1.794-.361-3.586-.719-5.375-1.076a.384.384 0 00-.048 0 .207.207 0 01-.077-.03.138.138 0 01-.046-.107.229.229 0 010-.037M407.888 190.811a1.402 1.402 0 00-.028.193c.025 1.243.047 2.487.068 3.734a2.006 2.006 0 01-.025.232l.061.015a664.477 664.477 0 01-.073-4.024v-.143M408.41 186.561c-.305-.024-.611-.04-.916-.067l-.917-.08a.756.756 0 01-.113-.049c-.853.508-1.708 1.012-2.558 1.528a.142.142 0 01-.091.025.172.172 0 01-.071-.04l-.027-.025c-.254-.259-.513-.507-.773-.76l-1.834-1.8c-.189-.046-.381-.083-.571-.141-.443-.14-.883-.29-1.326-.437l1.363 1.345 1.564 1.528.055-.04a.546.546 0 01.092.211.162.162 0 01-.04.113v.024a.56.56 0 000 .058V189.177c0 .079.015.134.061.162H402.47c.159.03.187.036.184-.086v-.104-.168-.736-.459a.386.386 0 01.042-.128.75.75 0 00.071.067l2.301.462.03 1.714.474.091c0-.513-.019-1.029-.019-1.527a.252.252 0 01.018-.106.247.247 0 01.059-.09c.498-.306 1.002-.611 1.503-.917.446-.269.889-.544 1.329-.819M409.067 184.813h-.039l-1.592.95c-.119.074-.236.156-.355.236.287.024.575.058.862.07.403.021.804.027 1.204.04l.788-.459a68.825 68.825 0 00-.868-.843M398.489 182.76l-.773.51.739.73c.379.138.761.285 1.14.416.278.095.556.171.834.257-.101-.107-.202-.214-.306-.306l-1.634-1.595M407.97 183.964c-.168.095-.336.18-.501.278-.654.391-1.304.779-1.952 1.176-.171.101-.33.22-.495.33l.449.086c.073.015.14.036.211.055l1.864-1.109c.278-.168.55-.349.822-.526l-.398-.306M399.558 182.286l-.369.19a.792.792 0 00.061.082c.485.474.971.95 1.46 1.421l1.18 1.134.706.168a2.069 2.069 0 00-.123-.141l-2.915-2.854z" fill="#fff"></path><path d="M404.441 186.069c-.183.107-.37.208-.55.324a.095.095 0 01-.038.021.11.11 0 01-.044.003.087.087 0 01-.043-.021.232.232 0 01-.049-.04c-.183-.186-.373-.363-.565-.547l-.697-.131 1.363 1.338.706-.427c.189-.117.375-.239.562-.361l-.645-.159zM399.152 182.448h-.012l.006.016h.012l-.006-.016zM408.42 184.245l-.022.009.022-.009zM399.848 189.339l-4.473-.899a1.912 1.912 0 000 .321c.092.501.159 1.008.306 1.5a9.234 9.234 0 001.457 2.94.239.239 0 00.153.116c.02.003.041.003.061 0 .257-.018.51-.034.767-.031.611 0 1.201.028 1.8.043a1785.84 1785.84 0 00-.067-3.997M396.548 184.44a.485.485 0 00-.097.095c-.205.358-.425.697-.612 1.076a5.163 5.163 0 00-.461 1.851v.052c0 .443 0 .443.385.52l1.546.305.193.04.965.196 1.161.235a.212.212 0 00.071 0c.073 0 .098-.046.098-.153v-.238-.275-.156a3.83 3.83 0 00-.055-.354c-.135-.144-.266-.306-.404-.437-.89-.899-1.777-1.798-2.661-2.698a.622.622 0 00-.129-.071M399.922 193.782a19.496 19.496 0 00-2.356-.031c.061.079.089.125.122.159.306.305.575.651.889.917.447.394.917.742 1.375 1.109v-.061l-.045-2.103" fill="#fff"></path><path d="M399.748 187.646c.024.117.042.235.055.354v.669c0 .107-.025.153-.098.153a.206.206 0 01-.07 0l-1.162-.235-.965-.196-.193-.039-1.546-.306c-.376-.076-.376-.076-.385-.519v-.052c0 .168-.021.339-.03.525l.214.043 4.277.859v-1.097c0-.043-.051-.098-.079-.147M407.213 183.46a.21.21 0 00-.077.024c-1.002.596-2.02 1.17-3 1.812a.45.45 0 01-.343.092h-.046a1.041 1.041 0 01-.345-.254c-1.02-1.03-2.065-2.029-3.101-3.056l-.306.11.022.028c.922.904 1.848 1.808 2.777 2.71.187.184.373.355.559.532l.886.183 1.116-.648 1.555-.916c.214-.129.422-.269.636-.407l-.306-.204M399.8 181.626h-.404c.08.086.162.168.242.257l.333-.107-.171-.153M402.431 193.479h.027v.101h-.027v-.101zm-.123-3.548l.037.061c.287.059.287.059.306.407l.048 2.86v.037c0 .085 0 .171-.103.155h-.031v.065l.098.079v.04c-.037 0-.095-.019-.098-.028a.226.226 0 00-.183-.207.289.289 0 00-.083 0v-.829-.476c0-.349 0-.7-.021-1.048v-.349c0-.183 0-.366.018-.544 0-.058.055-.097.083-.143l-.046-.052-.025-.028zm.401-.055c-.04.025-.077.071-.12.065h-.091l-.248-.062v.306c0 .354 0 .709.016 1.063.015.355 0 .709.021 1.064 0 .443.021.889.03 1.335l.468.119-.07-3.88M402.156 187.539l-.056.04c.035.077.059.158.074.241.018.516.027 1.03.037 1.543l.44.089c0 .061.018.11.027.162v-.135c0-.397 0-.794-.021-1.192v-.394a.32.32 0 01.058-.134.75.75 0 01-.071-.067.386.386 0 00-.042.128v1.467c0 .122-.025.116-.184.085h-.162c-.045-.027-.058-.082-.061-.162v-.611-.611a.561.561 0 010-.058v-.025a.16.16 0 00.04-.113.542.542 0 00-.092-.21M402.107 193.876l.003.038-.003-.038zM411.136 187.258c-.211.128-.422.253-.629.385-.612.379-1.192.764-1.791 1.136-.263.168-.532.321-.798.483V190.488h.046a.91.91 0 01.165 0l4.211.843.192.04v-.361c0-.089-.018-.174-.027-.263a7.496 7.496 0 00-.611-2.139c-.217-.476-.489-.916-.734-1.384M405.129 194.57c0 .917.027 1.833.042 2.735 0 .198 0 .394.022.592l.47.046v-.03c-.015-.7-.033-1.4-.045-2.1 0-.372-.019-.751-.025-1.124l-.474-.119M405.553 190.487c.019 1.262.043 2.521.065 3.783v.034l.021-.028v-.244l-.061-3.337v-.104l-.025-.104zM405.615 194.649v.04c0 .373 0 .752.024 1.124 0 .7.031 1.4.046 2.1.011-.059.017-.118.018-.178l-.052-3.012-.024-.074" fill="#fff"></path><path d="M405.63 194.273l-.022.028v.348l.025.074c.033.045.07.085.11.137v-.18a.673.673 0 000-.11 1.971 1.971 0 00-.113-.306M407.842 190.182a.188.188 0 00-.058 0c-.092 0-.043.135-.04.22a.134.134 0 010 .04l.111.043v-.306M407.836 189.485c-.021.025-.052.043-.055.071-.003.027 0 .131 0 .195v.196c0 .064.037.064.058.094v-.556M405.636 189.876c-.024.037-.049.071-.07.108l-.031.067v.067c.092-.015.132-.04.132-.104a.439.439 0 00-.031-.138zM406.632 199.004a.151.151 0 00-.141.045l.285.059a.238.238 0 00-.144-.104zM405.535 190.2v.104h.138v-.058l-.138-.052M405.553 190.588v.104l.08-.085-.083-.019M407.83 199.251s-.028 0-.04.031v.027l.113.025v-.016c-.018-.036-.039-.064-.058-.067M407.833 189.348h-.077v.03l.074.031v-.067M405.633 189.614l-.034.015c0 .031.025.043.031.058l.027-.021-.024-.052zM407.949 199.135l-.058-.012-.003.07.061-.058zM407.662 199.217l.061.083-.061-.083zM405.627 194.029v.07l.046-.033-.046-.037zM405.831 198.539l-.006.025.022.043.003-.062-.019-.006zM407.998 195.435l.04 2.197.024.027a6.392 6.392 0 002.383-1.237c-.055-.034-.073-.052-.094-.062-.642-.262-1.281-.528-1.919-.782-.15-.058-.306-.088-.452-.134M407.818 195.126c-.01.06-.015.12-.016.18.016.917.031 1.852.049 2.784 0 .18.019.367.031.553a.353.353 0 000-.046v-.082c0-.08 0-.15.094-.138h.031v-.137h-.027l-.028.088-.052-.073.08-.052c0-.034.018-.064.03-.098.012-.033 0-.07 0-.104v-.305l-.03-.077-.107-.015v-.305c.048.082.079.137.11.195v-.208c-.022-.033-.055-.064-.055-.091-.034-.492-.058-.978-.089-1.464v-.018a.194.194 0 010-.068.053.053 0 01.015-.026.049.049 0 01.028-.013h.046l.027-.202v-.211c-.046 0-.061.04-.131.199v-.263" fill="#fff"></path><path d="M407.97 195.401l-.027.202.03 1.668v.348l.031.077v-.064l-.04-2.197v-.034M407.903 195.004a1.286 1.286 0 01-.085.018v.368c.07-.16.085-.187.131-.199v-.141l-.058-.046M407.903 194.97v.034l.058.046.003-.065-.061-.015zM408.066 197.65l-.013-.003-.006.012.019-.009zM405.052 190.381l.067 3.782.474.104c-.021-1.262-.046-2.521-.064-3.783l-.477-.103zM412.499 191.031v.361l-.193-.04-4.21-.843a.91.91 0 00-.165 0c.023.01.048.017.073.021 1.469.298 2.939.592 4.409.883a.883.883 0 00.126 0l-.046-.391M407.891 190.494l-.003.037.028-.025-.025-.012zM407.741 190.793v.138l.055-.049-.058-.089" fill="#fff"></path><path d="M407.903 194.97l-.088-.018v.07a.858.858 0 00.085-.018v-.034M408.022 198.127c0 .033-.021.064-.03.098v.036h.027v-.134M402.354 189.977c-.027.046-.076.086-.082.144 0 .177-.022.36-.019.544v.348c0 .348 0 .7.022 1.048v1.305a.375.375 0 01.082 0 .226.226 0 01.184.208l.097.027v-.04l-.097-.079v-.064h.03c.113.015.107-.07.104-.156v-.037l-.049-2.86c0-.348 0-.348-.305-.406" fill="#fff"></path><path d="M402.458 193.482h-.027v.098h.027v-.101M402.317 189.916l-.009.012.046.052v-.003l-.037-.061zM407.912 189.29c0 .024-.046.049-.046.076 0 .355.019.709.028 1.063v-.565-.574M407.915 195.593h-.033a.053.053 0 00-.043.04.189.189 0 000 .067v.019c.031.486.055.971.089 1.463 0 .028.033.058.055.092l-.031-1.668M407.867 197.283v.306l.107.016v-.141a5.007 5.007 0 00-.111-.196M407.998 198.209l-.08.052.053.074.027-.089v-.037z" fill="#fff"></path><path fill-rule="evenodd" clip-rule="evenodd" d="M420.563 189.424a.941.941 0 01.583.48l2.295 3.731c.105.177.16.38.159.586a.797.797 0 01-.159.48l-2.295 2.986c-.16.149-.365.243-.583.265a1.388 1.388 0 01-.694-.305.992.992 0 01-.362-.977.801.801 0 01.148-.303l1.974-2.503-1.974-3.147a1.155 1.155 0 01-.159-.746.663.663 0 01.373-.532.798.798 0 01.694-.015z" fill="#fff"></path><path d="M268.737 172.031a5.619 5.619 0 01-1.286-.391c.071 2.396 1.329 3.822 3.774 4.278l8.354 1.473v-3.453l-10.842-1.907z" fill="#64B2FF"></path><path d="M243.944 144.347c4.302.734 7.952-.194 10.948-2.783 3.056-2.5 4.584-5.936 4.584-10.31 0-4.374-1.528-8.371-4.584-11.993a.413.413 0 00-.064-.068 17.652 17.652 0 013.037 9.919c0 4.376-1.527 7.812-4.583 10.31-2.989 2.587-6.637 3.516-10.945 2.786-4.26-.745-7.91-2.918-10.952-6.517a22.4 22.4 0 001.552 2.075c3.052 3.636 6.721 5.83 11.007 6.581zM259.045 169.138l-3.642.641a4.96 4.96 0 01-1.608-.051l-10.306-1.809c.378 1.739 1.592 2.798 3.639 3.174l12.183 2.139a5.777 5.777 0 001.741.052 2.619 2.619 0 001.339-.776c.428-.552.641-1.367.641-2.444v-12.412c0-2.037-.814-3.385-2.444-4.043.066.362.097.729.095 1.097v11.514c-.004 1.607-.55 2.58-1.638 2.918zM268.468 206.85c.093.571.138 1.149.135 1.727v9.934c0 2.196-.527 3.534-1.58 4.015l-4.553.804a3.424 3.424 0 01-1.338 0h-.028l-36.444-6.439-12.733-2.249a3.408 3.408 0 002.664 2.048l2.335.412 9.637 1.708 41.682 7.367c2.176.394 3.265-.98 3.267-4.122v-9.943c.006-3.037-1.009-4.791-3.044-5.262zM268.468 180.612c.093.57.138 1.148.135 1.726v9.934c0 2.194-.527 3.532-1.58 4.015l-4.553.804a3.386 3.386 0 01-1.338 0h-.028l-49.171-8.687a3.408 3.408 0 002.665 2.047l53.657 9.472c2.175.391 3.264-.984 3.266-4.125v-9.924c0-3.036-1.018-4.79-3.053-5.262z" fill="#489BFD"></path><path fill-rule="evenodd" clip-rule="evenodd" d="M236.882 236.579c-.572.751-1.26 1.057-2.062.916l-20.525-3.617c-.804-.141-1.482-.688-2.035-1.632a5.912 5.912 0 01-.856-3.16 4.48 4.48 0 01.856-2.838 1.987 1.987 0 012.035-.856l20.509 3.615c.804.14 1.492.669 2.063 1.58.573.952.869 2.045.856 3.156 0 1.178-.281 2.123-.841 2.836z" fill="#fff"></path><path fill-rule="evenodd" clip-rule="evenodd" d="M262.47 223.33a3.386 3.386 0 01-1.338 0h-.028l-49.171-8.688-3.575-.626-.883-.162c-2.159-.373-3.239-2.131-3.239-5.274v-9.937c0-1.874.384-3.115 1.152-3.722.141-.129.305-.233.483-.305a.558.558 0 01.186-.08c.21-.058.425-.093.642-.107h.238c.18.001.359.018.535.052l53.657 9.473a3.457 3.457 0 012.677 2.047 7.706 7.706 0 01.589 3.254v9.956a7.83 7.83 0 01-.305 2.444c-.318.917-.853 1.479-1.62 1.675zm-41.071-21.39c-.17.222-.255.497-.241.776v.028c-.006.303.078.6.241.855a.868.868 0 00.563.456l33.492 5.891a.541.541 0 00.59-.242c.156-.217.231-.481.214-.748v-.028a1.838 1.838 0 00-.214-.883.97.97 0 00-.59-.428l-33.492-5.891a.506.506 0 00-.563.211v.003zm-14.514 2.298a8.117 8.117 0 006.402 7.639c1.766.304 3.282-.062 4.55-1.097 1.222-1.053 1.833-2.479 1.833-4.278a7.969 7.969 0 00-6.399-7.639c-1.768-.32-3.267.047-4.498 1.1-1.256 1.047-1.886 2.472-1.888 4.275zm6.053-2.625c.353-.033.708.042 1.018.214.359.197.628.525.748.917.245.516.329 1.094.242 1.659-.055.611-.259 1.018-.611 1.222a1.047 1.047 0 01-.917.135 1.868 1.868 0 01-.886-.612 2.566 2.566 0 01-.507-1.313 2.668 2.668 0 01.052-1.418 1.21 1.21 0 01.348-.562.897.897 0 01.513-.239v-.003zm3.722 7.514c.098.268.161.547.186.831a.303.303 0 01-.241.269l-.507-.083c-.483-.107-1.412-.331-2.787-.669a92.365 92.365 0 01-2.863-.748.575.575 0 01-.306-.376.617.617 0 01.052-.428c.1-.301.216-.595.349-.883.11-.288.245-.566.403-.831.199-.157.426-.275.669-.349.141-.05.364-.152.669-.305.18.179.377.341.587.483.199.149.416.274.645.372.189.017.379 0 .562-.051.199-.07.404-.124.611-.162.17.163.349.315.538.455.247.232.446.403.587.51.144.139.25.314.305.507.052.126.144.34.266.642l.275.816zm4.819.938a.62.62 0 00.428.428l25.838 4.553c.177.036.306-.055.428-.269.136-.264.201-.559.186-.856v-.027a2.128 2.128 0 00-.186-.917.635.635 0 00-.428-.428l-25.835-4.562c-.178-.033-.306.055-.428.269a1.785 1.785 0 00-.187.856v.015c-.011.316.052.63.184.917v.021zm37.709-.364a.733.733 0 00-.641.028.607.607 0 00-.349.507.847.847 0 00.135.672l1.833 2.97-1.833 2.356a.69.69 0 00-.143.289.687.687 0 00.008.322c.042.239.165.455.349.612.18.155.405.249.641.269a.693.693 0 00.538-.306l2.167-2.732a.798.798 0 00.162-.483 1.035 1.035 0 00-.162-.534l-2.167-3.563a1.026 1.026 0 00-.538-.407z" fill="#fff" stroke="#DFC8ED" stroke-miterlimit="10"></path><path fill-rule="evenodd" clip-rule="evenodd" d="M279.903 155.445v-51.029c0-5.732-2.813-9.093-8.437-10.083l-54.647-9.638c-1.899-.336-3.478-.292-4.739.132-2.482.84-3.722 3.162-3.722 6.963v76.129l2.466-.413c.286-.017.573.001.855.052l53.657 9.472c1.742.314 2.786 1.506 3.132 3.576 2.037.47 3.056 2.224 3.056 5.261v9.931c0 3.145-1.089 4.521-3.266 4.125l-53.657-9.472a3.408 3.408 0 01-2.665-2.047l-3.575-.63v6.38l2.466-.415c.286-.017.573 0 .855.052l53.657 9.472c1.742.314 2.786 1.506 3.132 3.575 2.038.475 3.056 2.229 3.056 5.262v9.934c0 3.141-1.089 4.515-3.266 4.122l-39.822-7.028v-.037l-1.093-.159-3.16-.559c.024.037-9.573-1.686-9.573-1.686a3.408 3.408 0 01-2.665-2.048l-3.59-.623v19.504c.016 5.69 2.837 9.033 8.461 10.029l54.647 9.637c3.223.573 5.516.044 6.881-1.586 1.035-1.222 1.554-3.055 1.556-5.5v-72.113l-.19-.03.19-18.512zm-31.195 70.082a1.71 1.71 0 011.42-.349 2.443 2.443 0 011.418.831c.381.428.591.98.59 1.553a1.634 1.634 0 01-.59 1.338 1.583 1.583 0 01-1.418.348 2.32 2.32 0 01-1.42-.831 2.349 2.349 0 01-.587-1.552 1.634 1.634 0 01.587-1.338zm-7.496-1.446a1.69 1.69 0 011.418-.348 2.488 2.488 0 011.421.828c.378.429.588.98.589 1.552a1.65 1.65 0 01-.589 1.342 1.611 1.611 0 01-1.421.348 2.308 2.308 0 01-1.418-.831c-.38-.428-.59-.98-.59-1.552a1.624 1.624 0 01.59-1.339zm-7.309-1.259a1.71 1.71 0 011.418-.348 2.488 2.488 0 011.421.828c.378.43.586.983.586 1.555a1.631 1.631 0 01-.586 1.339 1.606 1.606 0 01-1.421.348 2.291 2.291 0 01-1.418-.831c-.38-.428-.59-.98-.59-1.552a1.63 1.63 0 01.59-1.339zm-19.599 11.056c-.745-.135-1.382-.614-1.91-1.437l-.116-.201c.04.07.083.134.126.198.131-.03.232-.052.287-.058.492 0 1.344-2.799.916-5.708l13.387 1h.196l.611.11 7.028 1.222c.803.143 1.488.669 2.059 1.58.577.962.874 2.065.859 3.187a4.366 4.366 0 01-.859 2.811c-.571.748-1.256 1.051-2.059.916l-16.586-2.924-3.939-.696zm38.232 10.548a.918.918 0 01-.131.534c-.092.162-.199.233-.324.214l-19.758-3.48c-.124-.018-.226-.125-.305-.321a1.174 1.174 0 01-.135-.59v-.024c-.01-.197.037-.392.135-.562a.326.326 0 01.129-.126.325.325 0 01.176-.036l19.758 3.48a.46.46 0 01.324.269c.091.191.136.4.131.611v.031zm17.592-1.687c-.572.749-1.259 1.054-2.06.917l-20.512-3.615c-.801-.143-1.478-.688-2.032-1.635a5.89 5.89 0 01-.859-3.156 4.47 4.47 0 01.859-2.839 1.992 1.992 0 012.032-.859l20.512 3.615c.801.143 1.487.669 2.06 1.58.573.953.871 2.047.858 3.159 0 1.178-.286 2.122-.858 2.833zm-4.364-139.362c.133-.018.268-.018.4 0 .143.022.287.032.431.028l.401-.538-.306-.855c.16-.064.313-.145.455-.242.151-.08.314-.135.483-.162.118.07.222.161.306.269.071.09.173.206.305.348h.776l.162-.669c.41.066.813.168 1.204.306l.08.916.644.563.612-.269c.311.366.565.779.751 1.222l-.59.373.159.831c.14.062.274.133.404.214a.538.538 0 01.305.348c.018.171.009.343-.027.511-.034.122-.08.284-.132.479l-.831-.134-.428.51c.112.26.201.529.266.804a1.261 1.261 0 01-.428.4.828.828 0 01-.611.028l-.482-.535h-.749l-.241.696a12.147 12.147 0 01-1.223-.403l.055-.831-.611-.507-.455.079a.803.803 0 01-.428-.052 1.902 1.902 0 01-.305-.534 7.177 7.177 0 01-.214-.566l.589-.321-.189-.776c-.355-.25-.611-.428-.721-.534-.045-.343.019-.69.183-.994v-.003zm-47.417-7.819a1.602 1.602 0 01-1.421.348 2.3 2.3 0 01-1.418-.83c-.38-.428-.59-.98-.59-1.553a1.632 1.632 0 01.59-1.338 1.711 1.711 0 011.418-.349 2.492 2.492 0 011.421.831c.378.429.588.98.589 1.553a1.637 1.637 0 01-.589 1.341v-.003zm14.59 42.198a22.386 22.386 0 01-1.552-2.074l-.052-.068a20.69 20.69 0 01-2.102-2.961 17.493 17.493 0 01-2.396-8.928c0-4.353 1.5-7.825 4.498-10.414 3.056-2.499 6.723-3.374 11-2.625a17.81 17.81 0 013.056.804c2.997 1.072 5.626 2.946 7.887 5.622.55.661 1.061 1.353 1.528 2.075.023.02.045.043.064.067 3.055 3.643 4.583 7.641 4.583 11.994s-1.528 7.79-4.583 10.31c-2.997 2.589-6.646 3.517-10.949 2.783-4.302-.733-7.963-2.927-10.982-6.582v-.003zm30.095 32.317c0 1.069-.214 1.884-.641 2.444a2.619 2.619 0 01-1.339.776 5.776 5.776 0 01-1.741-.052l-12.183-2.138c-2.037-.379-3.25-1.438-3.639-3.175l-.991-.171c-2.318-.438-3.477-1.825-3.477-4.159v-11.514c0-1.555.529-2.481 1.58-2.786.199-.052.412-.098.645-.135l3.025-.562h.107a4.677 4.677 0 011.552.055l11.306 1.98c1.913.326 3.033 1.317 3.361 2.973 1.63.666 2.445 2.014 2.445 4.043l-.01 12.421zm8.272 5.851h8.275v1.458l-8.275-1.458z" fill="#64B2FF"></path><path fill-rule="evenodd" clip-rule="evenodd" d="M268.306 106.619a1.599 1.599 0 001.797.214 1.335 1.335 0 00.801-1.5 1.968 1.968 0 00-.917-1.58 1.725 1.725 0 00-1.687-.305c-.611.203-.922.677-.935 1.42a1.97 1.97 0 00.941 1.751z" fill="#64B2FF"></path><path fill-rule="evenodd" clip-rule="evenodd" d="M279.744 154.541c-.257.04-.512.093-.764.159-1.247.36-1.871 1.461-1.873 3.303v13.653c0 2.774 1.376 4.415 4.128 4.922l13.399 2.35c.627.123 1.27.144 1.904.061l4.317-.761c1.294-.407 1.939-1.561 1.937-3.462v-13.652c0-2.75-1.364-4.359-4.094-4.825l-13.399-2.35a5.614 5.614 0 00-1.833-.064h-.138l-3.584.666z" fill="#EFF0FF"></path><path fill-rule="evenodd" clip-rule="evenodd" d="M296.538 178.989a5.907 5.907 0 01-1.904-.061l-13.399-2.35c-2.752-.511-4.128-2.152-4.128-4.922v-13.653c0-1.833.624-2.934 1.873-3.303a7.4 7.4 0 01.764-.159 5.446 5.446 0 011.491.098l13.399 2.35c2.709.486 4.064 2.095 4.064 4.824v13.653c0 1.163-.233 2.052-.7 2.668a2.65 2.65 0 01-1.46.855z" fill="#FF7133"></path><path fill-rule="evenodd" clip-rule="evenodd" d="M296.537 178.989a2.65 2.65 0 001.461-.855c.467-.612.7-1.501.7-2.668v-13.653c0-2.731-1.355-4.34-4.064-4.824l-13.399-2.35a5.446 5.446 0 00-1.491-.098l3.587-.666h.125a5.62 5.62 0 011.834.064l13.399 2.35c2.731.464 4.096 2.073 4.094 4.825v13.652c0 1.907-.646 3.061-1.937 3.462l-4.309.761z" fill="#F45540"></path><path fill-rule="evenodd" clip-rule="evenodd" d="M295.777 167.149a.58.58 0 01.348.284l1.366 2.224a.65.65 0 01.095.349.456.456 0 01-.095.284l-1.366 1.778a.593.593 0 01-.348.159.805.805 0 01-.413-.189.592.592 0 01-.216-.582.469.469 0 01.088-.179l1.176-1.494-1.176-1.874a.686.686 0 01-.095-.443.387.387 0 01.223-.305.465.465 0 01.413-.012z" fill="#fff"></path><path d="M291.419 158.95l-.611-.082c-.22 0-.44 0-.657.024-1.714.144-3.055 1.091-3.99 2.909l-.037.052c-.052-.101-.107-.195-.156-.29-1.076-2.06-2.503-3.328-4.241-3.881l-.468-.143-.611-.086h-.596l.199 7.874 1.934.272-.131-5.151c.795.34 1.469.913 1.934 1.643a7.635 7.635 0 011.277 3.771c0 .125.043.177.141.19l.813.11.812.116c.095 0 .126-.028.132-.15.046-1.485.446-2.704 1.247-3.609a2.674 2.674 0 011.717-.95l.131 5.155 1.925.266-.198-7.875-.612-.162M292.07 167.961h-.021l-.523-.073-1.042-.147h-.174a6.535 6.535 0 01-.388 2.75 4.09 4.09 0 01-1.399 1.904 2.832 2.832 0 01-2.02.532h-.077c-.971-.135-1.854-.672-2.618-1.629a7.33 7.33 0 01-1.574-4.666.707.707 0 00-.11-.036l-.837-.12-.834-.11c-.049 0-.095.065-.144.098v.443c.024.232.052.465.076.697a10.591 10.591 0 001.528 4.522 7.232 7.232 0 003.313 2.995c.31.113.626.209.947.287a.924.924 0 01.107.058l.357.049h.507c1.901-.064 3.343-1.118 4.312-3.172a8.525 8.525 0 00.749-3.615.602.602 0 01.024-.146v-.443a.19.19 0 00-.174-.15" fill="#fff"></path><path fill-rule="evenodd" clip-rule="evenodd" d="M238.783 147.259a5.196 5.196 0 011.424.092l12.76 2.237c1.426.257 2.459.841 3.099 1.754.545.844.814 1.837.77 2.842v13.004c0 1.108-.221 1.955-.664 2.54a2.552 2.552 0 01-1.393.815 5.514 5.514 0 01-1.812-.061l-11.642-2.041-1.118-.195c-2.624-.483-3.936-2.046-3.936-4.688v-13.002c0-1.753.595-2.802 1.785-3.144a6.43 6.43 0 01.727-.153z" fill="#FAB234"></path><path fill-rule="evenodd" clip-rule="evenodd" d="M260.631 152.292c.073.409.109.825.107 1.241v13.001c0 1.815-.612 2.914-1.834 3.297l-4.113.725a2.562 2.562 0 001.394-.816c.442-.585.663-1.431.663-2.54v-13.017a4.846 4.846 0 00-.77-2.841c-.642-.915-1.675-1.5-3.099-1.754l-12.76-2.237a5.194 5.194 0 00-1.424-.092l3.419-.635h.119a5.325 5.325 0 011.754.061l12.749 2.246c2.159.362 3.424 1.483 3.795 3.361z" fill="#F79826"></path><path fill-rule="evenodd" clip-rule="evenodd" d="M255.931 161.383a.462.462 0 01-.092.272l-1.301 1.692a.558.558 0 01-.333.15.754.754 0 01-.391-.18.562.562 0 01-.214-.364.451.451 0 01.091-.36l1.119-1.424-1.119-1.782a.677.677 0 01-.091-.424.37.37 0 01.067-.181.37.37 0 01.147-.125.437.437 0 01.391 0 .546.546 0 01.333.272l1.301 2.117a.654.654 0 01.092.337z" fill="#fff"></path><path d="M245.169 166.88c-4.171-.639-7.517-4.844-7.489-9.418.024-4.421 3.465-7.56 7.596-6.93 4.131.629 7.538 4.828 7.517 9.344-.021 4.516-3.45 7.639-7.639 7.004h.015zm.061-16.718c-4.311-.657-7.868 2.643-7.902 7.334-.027 4.626 3.487 9.005 7.695 9.714l.119.018c4.391.669 7.972-2.68 7.944-7.315.022-4.73-3.456-9.063-7.825-9.751h-.037" fill="#fff"></path><path d="M242.618 163.029v-.048c.244-.34.235-.77.235-1.223 0-2.356.021-4.711.024-7.067 0-.217.049-.306.223-.278h.065c.1.026.202.046.305.061.119.018.238.03.355.039h.045c.156.025.211.101.205.306v2.695l-.043 4.862v.305l.902.138v-3.135l1.078.165-.015 3.116.972.147.027-.043c0-.764 0-1.528-.024-2.288a2.744 2.744 0 00-.843-1.935.686.686 0 01.443-.094.808.808 0 01.409.21 3.54 3.54 0 011.207 2.497c.037.36.031.715.034 1.072a4.935 4.935 0 000 .709c.05.233.122.461.214.682l-5.806-.886-.012-.007zm.522-9.017c-.44-.067-.44-.067-.58-.589a.24.24 0 01.079-.019c1.027.165 2.053.306 3.074.507a2.45 2.45 0 011.98 2.427 1.898 1.898 0 01-1.119 1.83 1.892 1.892 0 01-.736.168c-.415 0-.837-.067-1.286-.11v-.48c.1.027.202.049.305.064a1.339 1.339 0 001.351-.488c.209-.272.317-.608.306-.951l-1.528-.232v-.452l1.482.226a1.653 1.653 0 00-.773-1.351 2.165 2.165 0 00-.682-.256c-.278-.052-.556-.095-.834-.138l-1.042-.156h.003zm2.075-2.533c-3.569-.544-6.545 2.164-6.652 6.029-.11 3.972 2.814 7.801 6.56 8.421h.086c3.685.563 6.67-2.194 6.722-6.111.043-4.107-2.9-7.777-6.652-8.348h-.055" fill="#fff"></path><path fill-rule="evenodd" clip-rule="evenodd" d="M302.096 213.454a7.371 7.371 0 00-.749.155c-1.222.355-1.833 1.436-1.833 3.243v13.392c0 2.72 1.349 4.329 4.048 4.828l13.14 2.304a5.792 5.792 0 001.867.064l4.238-.748c1.265-.395 1.897-1.527 1.897-3.395v-13.393c0-2.701-1.339-4.28-4.018-4.736l-13.139-2.304a5.415 5.415 0 00-1.809-.064h-.122l-3.52.654z" fill="#EFF0FF"></path><path fill-rule="evenodd" clip-rule="evenodd" d="M318.572 237.44a5.792 5.792 0 01-1.867-.064l-13.14-2.304c-2.701-.499-4.05-2.108-4.048-4.828v-13.392c0-1.809.611-2.89 1.833-3.243.247-.064.497-.117.749-.155a5.36 5.36 0 011.463.094l13.14 2.304c2.648.481 3.972 2.06 3.972 4.737v13.392c0 1.143-.226 2.014-.684 2.616a2.637 2.637 0 01-1.418.843z" fill="#1FBCBF"></path><path fill-rule="evenodd" clip-rule="evenodd" d="M318.572 237.44a2.63 2.63 0 001.433-.843c.458-.611.684-1.473.684-2.616v-13.392c0-2.679-1.324-4.258-3.972-4.737l-13.139-2.304a5.37 5.37 0 00-1.464-.094l3.52-.654h.122a5.414 5.414 0 011.809.064l13.14 2.304c2.678.458 4.018 2.037 4.018 4.736v13.393c0 1.868-.633 3-1.898 3.395l-4.253.748z" fill="#0D8E90"></path><path fill-rule="evenodd" clip-rule="evenodd" d="M318.41 225.82a.58.58 0 01.342.281l1.341 2.182a.653.653 0 01.092.342.46.46 0 01-.092.281l-1.341 1.742a.556.556 0 01-.342.156.785.785 0 01-.404-.187.592.592 0 01-.22-.373.48.48 0 01.095-.372l1.152-1.467-1.152-1.833a.698.698 0 01-.095-.437.393.393 0 01.22-.306.47.47 0 01.404-.009z" fill="#fff"></path><path d="M308.516 222.834a.18.18 0 01-.104-.064 19.855 19.855 0 01-.553-.696c.238-.129.44-.248.647-.336a.09.09 0 01.046 0 .128.128 0 01.055 0 .244.244 0 01.123.064c.183.177.354.382.562.611-.257.15-.495.305-.743.428h-.033v-.007zm.776-6.34c0 .431-.275.532-.523.66-.381.174-.751.37-1.109.587-.425.278-.642.776-.535 1.463.088.376.206.744.355 1.1-1.223.954-1.167 2.121-.459 3.569-.19.171-.371.352-.544.541a2.85 2.85 0 00-.656 1.779v.149c.04.657.257 1.29.626 1.834.288.47.629.906 1.017 1.298.966.917 1.947 1.834 2.946 2.665a8.155 8.155 0 012.768 4.278c0 .018.037.03.083.064.024-.364.061-.709.067-1.06v-.055l-.018-1.155a6.114 6.114 0 00-.48-2.081 6.591 6.591 0 00-1.671-2.249c-.917-.825-1.834-1.626-2.75-2.469-.373-.349-.703-.782-1.091-1.222a46.1 46.1 0 01.889-.612c.189.208.361.422.55.612.982.91 1.965 1.817 2.949 2.719a4.372 4.372 0 011.301 2.041c.04.141.071.284.101.428h.064c.025-.33.055-.66.068-.993a.817.817 0 000-.07l-.016-1.03a5.186 5.186 0 00-.21-1.076 4.762 4.762 0 00-1.397-2.111c-.547-.501-1.094-1.018-1.662-1.546.281-.22.531-.425.788-.611a.059.059 0 01.037 0h.036a.195.195 0 01.095.045c.37.306.749.639 1.106.99.458.446.79 1.005.963 1.62.018.061.043.119.07.186.025-.03.04-.039.043-.052a7.31 7.31 0 00.076-.724v-.837a4.458 4.458 0 00-1.036-2.445c-.085-.103-.174-.183-.131-.36a1.946 1.946 0 00-.266-1.464 3.485 3.485 0 00-.394-.489l-.052.034a.961.961 0 01-.379.917.178.178 0 01-.095.03h-.045l-.055-.027c-.22-.171-.428-.373-.654-.572.05-.048.098-.099.143-.152.196-.203.369-.428.514-.67.278-.55-.046-1.448-.563-1.607a.727.727 0 01-.345.7c-.281.183-.574.336-.862.492a.13.13 0 01-.048 0h-.046a.228.228 0 01-.092-.046 7.811 7.811 0 01-.467-.535c.075-.036.147-.076.217-.122.38-.258.742-.54 1.084-.846.364-.367.193-1.174-.305-1.467" fill="#fff"></path></svg>
